<svg width="22" height="22" viewBox="0 0 22 22" fill="none" xmlns="http://www.w3.org/2000/svg">
<path d="M20.8081 9.25591C20.5503 9.04391 20.1606 8.7235 20.1161 8.55716C20.0662 8.37035 20.2415 7.90054 20.3694 7.55746C20.6171 6.89279 20.8981 6.13933 20.5271 5.49815C20.1517 4.84926 19.3519 4.71616 18.6461 4.59866C18.3099 4.5426 17.8018 4.45801 17.6719 4.32809C17.542 4.19818 17.4574 3.69011 17.4013 3.35391C17.2838 2.64812 17.1506 1.84833 16.5017 1.47285C15.8608 1.10191 15.1072 1.38289 14.4424 1.63063C14.0995 1.75853 13.6295 1.93343 13.4428 1.88374C13.2765 1.83926 12.9561 1.44952 12.7439 1.19171C12.2847 0.633286 11.764 0 11 0C10.236 0 9.7153 0.633286 9.25591 1.19188C9.04391 1.44969 8.7235 1.83943 8.55716 1.88391C8.37018 1.93359 7.90054 1.75853 7.55746 1.63063C6.89279 1.38289 6.13933 1.10191 5.49815 1.47285C4.84926 1.84833 4.71616 2.64812 4.59866 3.35391C4.5426 3.69011 4.45801 4.19818 4.32809 4.32809C4.19818 4.45801 3.69011 4.5426 3.35391 4.59866C2.64812 4.71616 1.84833 4.84943 1.47285 5.49832C1.10191 6.13933 1.38289 6.89279 1.63063 7.55763C1.75853 7.90054 1.93359 8.37051 1.88374 8.55716C1.83926 8.7235 1.44952 9.04391 1.19171 9.25607C0.633286 9.7153 0 10.236 0 11C0 11.764 0.633286 12.2847 1.19188 12.7441C1.44969 12.9561 1.83943 13.2765 1.88391 13.4428C1.93376 13.6297 1.75853 14.0995 1.63063 14.4425C1.38289 15.1072 1.10191 15.8607 1.47285 16.5018C1.84833 17.1507 2.64812 17.2838 3.35391 17.4013C3.69011 17.4574 4.19818 17.542 4.32809 17.6719C4.45801 17.8018 4.5426 18.3099 4.59866 18.6461C4.71616 19.3519 4.84943 20.1517 5.49832 20.5271C6.13916 20.8981 6.89279 20.6171 7.55763 20.3694C7.90054 20.2415 8.37068 20.0666 8.55716 20.1163C8.7235 20.1607 9.04391 20.5505 9.25607 20.8083C9.7153 21.3667 10.236 22 11 22C11.764 22 12.2847 21.3667 12.7441 20.8081C12.9561 20.5503 13.2765 20.1606 13.4428 20.1161C13.6298 20.0666 14.0995 20.2415 14.4425 20.3694C15.1072 20.6169 15.8607 20.8981 16.5018 20.5271C17.1507 20.1517 17.2838 19.3519 17.4013 18.6461C17.4574 18.3099 17.542 17.8018 17.6719 17.6719C17.8018 17.542 18.3099 17.4574 18.6461 17.4013C19.3519 17.2838 20.1517 17.1506 20.5271 16.5017C20.8981 15.8607 20.6171 15.1072 20.3694 14.4424C20.2415 14.0995 20.0664 13.6295 20.1163 13.4428C20.1607 13.2765 20.5505 12.9561 20.8083 12.7439C21.3667 12.2847 22 11.764 22 11C22 10.236 21.3667 9.7153 20.8081 9.25591ZM15.7385 9.47696L11.9307 14.5538C11.6363 14.9466 11.1865 15.1918 10.6969 15.2265C10.6571 15.2294 10.6168 15.2307 10.5769 15.2307C10.1248 15.2307 9.69986 15.0548 9.38028 14.7351L6.84177 12.1967C6.18196 11.5368 6.18196 10.4632 6.84177 9.80342C7.50174 9.14362 8.57529 9.14362 9.23509 9.80342L10.3937 10.9621L13.0308 7.44618C13.302 7.08464 13.6978 6.85016 14.1453 6.78621C14.5928 6.72226 15.0384 6.83656 15.3999 7.1078C15.7616 7.37888 15.996 7.77483 16.0599 8.22231C16.1239 8.66978 16.0097 9.11525 15.7385 9.47696Z" fill="#025B5D"/>
</svg>
