<svg width="53" height="36" viewBox="0 0 53 36" fill="none" xmlns="http://www.w3.org/2000/svg">
<path d="M6.37155 31.075H2.27955L1.43255 33H0.299547L3.78655 25.3H4.87555L8.37355 33H7.21855L6.37155 31.075ZM5.98655 30.195L4.32555 26.422L2.66455 30.195H5.98655ZM11.8555 33.066C11.2615 33.066 10.7298 32.9377 10.2605 32.681C9.79848 32.4243 9.43548 32.0723 9.17148 31.625C8.90748 31.1703 8.77548 30.657 8.77548 30.085C8.77548 29.513 8.90748 29.0033 9.17148 28.556C9.43548 28.1013 9.79848 27.7493 10.2605 27.5C10.7298 27.2433 11.2615 27.115 11.8555 27.115C12.3835 27.115 12.8528 27.2213 13.2635 27.434C13.6815 27.6467 14.0041 27.9547 14.2315 28.358L13.4285 28.875C13.2451 28.5963 13.0178 28.3873 12.7465 28.248C12.4751 28.1087 12.1745 28.039 11.8445 28.039C11.4631 28.039 11.1185 28.1233 10.8105 28.292C10.5098 28.4607 10.2715 28.7027 10.0955 29.018C9.92681 29.326 9.84248 29.6817 9.84248 30.085C9.84248 30.4957 9.92681 30.8587 10.0955 31.174C10.2715 31.482 10.5098 31.7203 10.8105 31.889C11.1185 32.0577 11.4631 32.142 11.8445 32.142C12.1745 32.142 12.4751 32.0723 12.7465 31.933C13.0178 31.7937 13.2451 31.5847 13.4285 31.306L14.2315 31.812C14.0041 32.2153 13.6815 32.527 13.2635 32.747C12.8528 32.9597 12.3835 33.066 11.8555 33.066ZM18.0537 33.066C17.4597 33.066 16.9281 32.9377 16.4587 32.681C15.9967 32.4243 15.6337 32.0723 15.3697 31.625C15.1057 31.1703 14.9737 30.657 14.9737 30.085C14.9737 29.513 15.1057 29.0033 15.3697 28.556C15.6337 28.1013 15.9967 27.7493 16.4587 27.5C16.9281 27.2433 17.4597 27.115 18.0537 27.115C18.5817 27.115 19.0511 27.2213 19.4617 27.434C19.8797 27.6467 20.2024 27.9547 20.4297 28.358L19.6267 28.875C19.4434 28.5963 19.2161 28.3873 18.9447 28.248C18.6734 28.1087 18.3727 28.039 18.0427 28.039C17.6614 28.039 17.3167 28.1233 17.0087 28.292C16.7081 28.4607 16.4697 28.7027 16.2937 29.018C16.1251 29.326 16.0407 29.6817 16.0407 30.085C16.0407 30.4957 16.1251 30.8587 16.2937 31.174C16.4697 31.482 16.7081 31.7203 17.0087 31.889C17.3167 32.0577 17.6614 32.142 18.0427 32.142C18.3727 32.142 18.6734 32.0723 18.9447 31.933C19.2161 31.7937 19.4434 31.5847 19.6267 31.306L20.4297 31.812C20.2024 32.2153 19.8797 32.527 19.4617 32.747C19.0511 32.9597 18.5817 33.066 18.0537 33.066ZM24.208 33.066C23.6286 33.066 23.108 32.9377 22.646 32.681C22.184 32.4243 21.821 32.0723 21.557 31.625C21.3003 31.1703 21.172 30.657 21.172 30.085C21.172 29.513 21.3003 29.0033 21.557 28.556C21.821 28.1013 22.184 27.7493 22.646 27.5C23.108 27.2433 23.6286 27.115 24.208 27.115C24.7873 27.115 25.3043 27.2433 25.759 27.5C26.221 27.7493 26.5803 28.1013 26.837 28.556C27.101 29.0033 27.233 29.513 27.233 30.085C27.233 30.657 27.101 31.1703 26.837 31.625C26.5803 32.0723 26.221 32.4243 25.759 32.681C25.3043 32.9377 24.7873 33.066 24.208 33.066ZM24.208 32.142C24.582 32.142 24.9156 32.0577 25.209 31.889C25.5096 31.713 25.7443 31.471 25.913 31.163C26.0816 30.8477 26.166 30.4883 26.166 30.085C26.166 29.6817 26.0816 29.326 25.913 29.018C25.7443 28.7027 25.5096 28.4607 25.209 28.292C24.9156 28.1233 24.582 28.039 24.208 28.039C23.834 28.039 23.4966 28.1233 23.196 28.292C22.9026 28.4607 22.668 28.7027 22.492 29.018C22.3233 29.326 22.239 29.6817 22.239 30.085C22.239 30.4883 22.3233 30.8477 22.492 31.163C22.668 31.471 22.9026 31.713 23.196 31.889C23.4966 32.0577 23.834 32.142 24.208 32.142ZM34.1274 27.17V33H33.1264V32.12C32.9137 32.4207 32.6314 32.6553 32.2794 32.824C31.9347 32.9853 31.557 33.066 31.1464 33.066C30.369 33.066 29.7567 32.8533 29.3094 32.428C28.862 31.9953 28.6384 31.361 28.6384 30.525V27.17H29.6944V30.404C29.6944 30.9687 29.83 31.3977 30.1014 31.691C30.3727 31.977 30.7614 32.12 31.2674 32.12C31.8247 32.12 32.2647 31.9513 32.5874 31.614C32.91 31.2767 33.0714 30.8 33.0714 30.184V27.17H34.1274ZM39.2507 27.115C39.9914 27.115 40.5781 27.3313 41.0107 27.764C41.4507 28.1893 41.6707 28.8163 41.6707 29.645V33H40.6147V29.766C40.6147 29.2013 40.4791 28.776 40.2077 28.49C39.9364 28.204 39.5477 28.061 39.0417 28.061C38.4697 28.061 38.0187 28.2297 37.6887 28.567C37.3587 28.897 37.1937 29.3737 37.1937 29.997V33H36.1377V27.17H37.1497V28.05C37.3624 27.7493 37.6484 27.5183 38.0077 27.357C38.3744 27.1957 38.7887 27.115 39.2507 27.115ZM46.903 32.659C46.749 32.791 46.5584 32.8937 46.331 32.967C46.1037 33.033 45.869 33.066 45.627 33.066C45.0404 33.066 44.5857 32.9083 44.263 32.593C43.9404 32.2777 43.779 31.8267 43.779 31.24V28.039H42.789V27.17H43.779V25.894H44.835V27.17H46.507V28.039H44.835V31.196C44.835 31.5113 44.912 31.7533 45.066 31.922C45.2274 32.0907 45.4547 32.175 45.748 32.175C46.0707 32.175 46.3457 32.0833 46.573 31.9L46.903 32.659ZM49.8517 33.066C49.375 33.066 48.9167 33.0037 48.4767 32.879C48.0367 32.747 47.692 32.582 47.4427 32.384L47.8827 31.548C48.1394 31.7313 48.451 31.878 48.8177 31.988C49.1844 32.098 49.5547 32.153 49.9287 32.153C50.8527 32.153 51.3147 31.889 51.3147 31.361C51.3147 31.185 51.2524 31.0457 51.1277 30.943C51.003 30.8403 50.8454 30.767 50.6547 30.723C50.4714 30.6717 50.2074 30.6167 49.8627 30.558C49.3934 30.4847 49.0084 30.4003 48.7077 30.305C48.4144 30.2097 48.1614 30.0483 47.9487 29.821C47.736 29.5937 47.6297 29.2747 47.6297 28.864C47.6297 28.336 47.8497 27.9143 48.2897 27.599C48.7297 27.2763 49.32 27.115 50.0607 27.115C50.4494 27.115 50.838 27.1627 51.2267 27.258C51.6154 27.3533 51.9344 27.4817 52.1837 27.643L51.7327 28.479C51.256 28.171 50.695 28.017 50.0497 28.017C49.6024 28.017 49.2614 28.0903 49.0267 28.237C48.792 28.3837 48.6747 28.578 48.6747 28.82C48.6747 29.0107 48.7407 29.161 48.8727 29.271C49.0047 29.381 49.166 29.4617 49.3567 29.513C49.5547 29.5643 49.8297 29.623 50.1817 29.689C50.651 29.7697 51.0287 29.8577 51.3147 29.953C51.608 30.041 51.8574 30.195 52.0627 30.415C52.268 30.635 52.3707 30.943 52.3707 31.339C52.3707 31.867 52.1434 32.2887 51.6887 32.604C51.2414 32.912 50.629 33.066 49.8517 33.066Z" fill="#757575"/>
<path d="M26 19.9345C20.477 19.9345 16 15.4722 16 9.96726C16 4.46234 20.477 0 26 0C31.523 0 36 4.46234 36 9.96726C36 15.4722 31.523 19.9345 26 19.9345ZM21.013 16.2028C22.4285 17.3308 24.1877 17.9439 26 17.9411C27.97 17.9411 29.773 17.2314 31.167 16.0553C30.5157 15.3892 29.7371 14.8601 28.877 14.4992C28.017 14.1383 27.0931 13.953 26.16 13.9542C25.1926 13.9531 24.2355 14.1524 23.3495 14.5395C22.4634 14.9265 21.6678 15.493 21.013 16.2028ZM19.616 14.7715C20.4565 13.8825 21.4707 13.1744 22.5961 12.691C23.7216 12.2076 24.9345 11.9591 26.16 11.9607C27.3417 11.9592 28.512 12.1903 29.6037 12.6409C30.6955 13.0914 31.6873 13.7525 32.522 14.5861C33.3781 13.3852 33.8836 11.9713 33.9826 10.5014C34.0815 9.03152 33.77 7.56304 33.0825 6.2589C32.395 4.95475 31.3585 3.86593 30.088 3.11322C28.8174 2.36051 27.3625 1.97336 25.8846 1.9947C24.4067 2.01604 22.9637 2.44505 21.7155 3.23413C20.4674 4.02321 19.463 5.14151 18.8137 6.46497C18.1644 7.78842 17.8957 9.26528 18.0373 10.7317C18.1789 12.1981 18.7254 13.5968 19.616 14.7725V14.7715ZM26 10.964C24.9391 10.964 23.9217 10.5439 23.1716 9.79625C22.4214 9.04856 22 8.03448 22 6.97708C22 5.91969 22.4214 4.90561 23.1716 4.15792C23.9217 3.41023 24.9391 2.99018 26 2.99018C27.0609 2.99018 28.0783 3.41023 28.8284 4.15792C29.5786 4.90561 30 5.91969 30 6.97708C30 8.03448 29.5786 9.04856 28.8284 9.79625C28.0783 10.5439 27.0609 10.964 26 10.964ZM26 8.97054C26.5304 8.97054 27.0391 8.76051 27.4142 8.38667C27.7893 8.01282 28 7.50578 28 6.97708C28 6.44839 27.7893 5.94134 27.4142 5.5675C27.0391 5.19366 26.5304 4.98363 26 4.98363C25.4696 4.98363 24.9609 5.19366 24.5858 5.5675C24.2107 5.94134 24 6.44839 24 6.97708C24 7.50578 24.2107 8.01282 24.5858 8.38667C24.9609 8.76051 25.4696 8.97054 26 8.97054Z" fill="#415859"/>
</svg>
