<svg width="22" height="22" viewBox="0 0 22 22" fill="none" xmlns="http://www.w3.org/2000/svg">
<path d="M11 14.2175C12.7798 14.2175 14.2226 12.7752 14.2226 10.996C14.2226 9.21675 12.7798 7.77441 11 7.77441C9.22017 7.77441 7.77734 9.21675 7.77734 10.996C7.77734 12.7752 9.22017 14.2175 11 14.2175Z" fill="#025B5D"/>
<path d="M10.1444 17.3772C12.9911 17.8541 14.6676 17.1196 14.6949 17.1077L15.2507 18.2704C15.15 18.3189 13.9855 18.8556 11.9846 18.8556C10.5691 18.8556 8.73014 18.5759 6.55777 17.6709C5.57864 17.263 4.3729 17.59 3.89169 18.5349C3.88847 18.5414 3.59375 19.1306 3.59375 19.1306L6.47587 20.5715C8.54606 21.6059 10.3317 22 11.8814 22.0006C13.7961 22.0006 15.3514 21.4645 16.6429 21.0197C17.7879 20.6245 18.515 20.2714 19.1174 20.5715L19.6939 20.8597L22.0001 16.2494C21.6399 16.0897 20.3538 15.1975 18.0096 14.6406C15.0974 13.9445 12.0299 15.0206 10.1444 17.3772Z" fill="#025B5D"/>
<path d="M18.1085 3.46553C18.1117 3.45917 18.4064 2.86997 18.4064 2.86997L15.5243 1.38612C13.4541 0.351707 11.6684 0.000644309 10.1188 0C8.20405 0 6.64875 0.536065 5.3572 0.98094C4.21226 1.37607 3.48514 1.68629 2.88277 1.38617L2.30621 1.09799L0 5.75115C0.360249 5.9109 1.68931 6.80296 4.03351 7.36003C6.94571 8.05602 9.97023 6.97998 11.8557 4.62335C9.00902 4.14648 7.33247 4.88095 7.30523 4.89289L6.74943 3.73012C6.85015 3.68167 8.01456 3.14496 10.0155 3.14496C11.431 3.14496 13.27 3.42455 15.4423 4.32959C16.4215 4.73756 17.6272 4.4106 18.1085 3.46553Z" fill="#025B5D"/>
</svg>
