<svg width="115" height="39" viewBox="0 0 115 39" fill="none" xmlns="http://www.w3.org/2000/svg">
<path d="M105.249 0.338014H9.30793C8.95821 0.338014 8.61269 0.338014 8.2639 0.339916C7.97193 0.341818 7.68229 0.347344 7.38751 0.351994C6.74712 0.359509 6.10824 0.41569 5.47642 0.520048C4.84549 0.626679 4.23431 0.827707 3.66358 1.11633C3.09354 1.4074 2.57268 1.78562 2.1199 2.23726C1.66473 2.68763 1.28532 3.2082 0.996246 3.77894C0.706373 4.34855 0.505375 4.95894 0.400192 5.58903C0.29401 6.21832 0.236872 6.85487 0.229292 7.49296C0.220442 7.78454 0.219507 8.07709 0.214844 8.36871V30.3507C0.219507 30.646 0.220442 30.9321 0.229292 31.2275C0.236875 31.8655 0.294012 32.5021 0.400192 33.1313C0.505084 33.7618 0.706095 34.3725 0.996246 34.9423C1.28519 35.5112 1.66466 36.0297 2.1199 36.4776C2.57097 36.9312 3.09216 37.3097 3.66358 37.5985C4.23431 37.8879 4.84542 38.0901 5.47642 38.1984C6.10835 38.3019 6.74717 38.3582 7.38751 38.3666C7.68229 38.373 7.97193 38.3767 8.2639 38.3767C8.61268 38.3786 8.95823 38.3786 9.30793 38.3786H105.249C105.592 38.3786 105.94 38.3786 106.283 38.3767C106.573 38.3767 106.871 38.373 107.162 38.3666C107.801 38.3586 108.439 38.3024 109.069 38.1984C109.702 38.0894 110.315 37.8872 110.889 37.5985C111.46 37.3095 111.981 36.9311 112.431 36.4776C112.885 36.0279 113.266 35.5099 113.558 34.9423C113.846 34.3721 114.045 33.7614 114.149 33.1313C114.255 32.502 114.314 31.8656 114.326 31.2275C114.329 30.9321 114.329 30.646 114.329 30.3507C114.337 30.0052 114.337 29.6616 114.337 29.3105V9.40702C114.337 9.05875 114.337 8.71327 114.329 8.36871C114.329 8.07709 114.329 7.78454 114.326 7.49292C114.314 6.85478 114.255 6.21837 114.149 5.58899C114.045 4.95927 113.846 4.34893 113.558 3.7789C112.969 2.6349 112.036 1.7037 110.889 1.11625C110.315 0.828327 109.702 0.627352 109.069 0.519963C108.439 0.415144 107.801 0.358944 107.162 0.351861C106.871 0.34722 106.573 0.341647 106.283 0.339793C105.94 0.337891 105.592 0.337891 105.249 0.337891V0.338014Z" fill="#A6A6A6"/>
<path d="M8.2641 37.5472C7.97353 37.5472 7.68998 37.5435 7.40169 37.5371C6.80448 37.5293 6.20866 37.4775 5.61912 37.382C5.06941 37.2876 4.53688 37.1119 4.03911 36.8609C3.54591 36.6119 3.09606 36.2855 2.70682 35.8941C2.31193 35.5073 1.98318 35.0587 1.73357 34.566C1.48122 34.0701 1.30657 33.5386 1.21572 32.99C1.11761 32.4005 1.06453 31.8044 1.05693 31.2068C1.05088 31.0063 1.04297 30.3385 1.04297 30.3385V8.36946C1.04297 8.36946 1.0514 7.71192 1.05698 7.51874C1.06425 6.92215 1.11702 6.32698 1.21484 5.73837C1.30586 5.18823 1.48064 4.65518 1.73313 4.15769C1.98182 3.66536 2.30875 3.2164 2.70126 2.82821C3.09332 2.43634 3.5446 2.10822 4.03865 1.85583C4.53527 1.6056 5.06679 1.43122 5.61539 1.33853C6.20687 1.24207 6.80475 1.18992 7.40404 1.18251L8.26457 1.1709H106.273L107.144 1.18298C107.738 1.19001 108.331 1.2417 108.917 1.3376C109.471 1.43145 110.008 1.60705 110.51 1.85862C111.5 2.36726 112.305 3.17199 112.813 4.16001C113.062 4.65407 113.234 5.18276 113.324 5.72816C113.423 6.32159 113.478 6.92144 113.489 7.52292C113.492 7.79225 113.492 8.08155 113.492 8.36946C113.5 8.72609 113.5 9.06554 113.5 9.40777V29.3113C113.5 29.6568 113.5 29.9939 113.492 30.3338C113.492 30.6431 113.492 30.9264 113.488 31.218C113.477 31.8087 113.423 32.3978 113.325 32.9807C113.236 33.5333 113.063 34.0689 112.81 34.5689C112.559 35.0562 112.232 35.5009 111.842 35.8867C111.452 36.2802 111.002 36.6085 110.507 36.8591C110.006 37.1121 109.47 37.2883 108.917 37.382C108.327 37.478 107.731 37.5298 107.134 37.5371C106.855 37.5435 106.562 37.5472 106.278 37.5472L105.244 37.5491L8.2641 37.5472Z" fill="black"/>
<path d="M23.8385 19.6447C23.8488 18.8509 24.0602 18.0726 24.4532 17.3822C24.8461 16.6918 25.4078 16.1118 26.086 15.696C25.6551 15.0824 25.0868 14.5775 24.4261 14.2213C23.7653 13.8651 23.0304 13.6674 22.2796 13.644C20.6782 13.4764 19.1256 14.5996 18.3096 14.5996C17.4777 14.5996 16.2212 13.6607 14.8682 13.6884C13.993 13.7166 13.1401 13.9704 12.3925 14.425C11.6449 14.8797 11.0282 15.5197 10.6024 16.2827C8.75799 19.4671 10.1338 24.1471 11.9006 26.7211C12.7845 27.9815 13.8177 29.3894 15.1695 29.3395C16.4923 29.2848 16.9863 28.4984 18.5831 28.4984C20.165 28.4984 20.6285 29.3395 22.0078 29.3078C23.4272 29.2848 24.3215 28.0417 25.1745 26.7694C25.8096 25.8713 26.2983 24.8787 26.6226 23.8283C25.7979 23.4805 25.0942 22.8983 24.5991 22.1544C24.104 21.4104 23.8395 20.5375 23.8385 19.6447Z" fill="white"/>
<path d="M21.2329 11.9515C22.0069 11.025 22.3881 9.83414 22.2958 8.63184C21.1134 8.75568 20.0212 9.31921 19.2368 10.2102C18.8533 10.6454 18.5595 11.1518 18.3724 11.7003C18.1852 12.2488 18.1083 12.8287 18.1461 13.4069C18.7375 13.413 19.3226 13.2851 19.8573 13.033C20.392 12.7809 20.8623 12.4111 21.2329 11.9515Z" fill="white"/>
<path d="M40.5571 26.1479H36.043L34.9589 29.34H33.0469L37.3226 17.5303H39.3092L43.5849 29.34H41.6403L40.5571 26.1479ZM36.5105 24.675H40.0887L38.3248 19.4945H38.2754L36.5105 24.675Z" fill="white"/>
<path d="M52.8209 25.035C52.8209 27.7106 51.3847 29.4297 49.2175 29.4297C48.6685 29.4583 48.1226 29.3322 47.6421 29.0658C47.1616 28.7994 46.7661 28.4034 46.5008 27.9233H46.4598V32.188H44.6875V20.7294H46.403V22.1615H46.4356C46.7131 21.6836 47.1153 21.2897 47.5994 21.0217C48.0836 20.7536 48.6315 20.6215 49.1849 20.6393C51.3763 20.6393 52.8209 22.3667 52.8209 25.035ZM50.9992 25.035C50.9992 23.2917 50.0958 22.1457 48.7174 22.1457C47.3632 22.1457 46.4524 23.3159 46.4524 25.035C46.4524 26.7698 47.3632 27.9317 48.7174 27.9317C50.0958 27.9317 50.9992 26.794 50.9992 25.035Z" fill="white"/>
<path d="M62.3248 25.0349C62.3248 27.7106 60.8887 29.4297 58.7214 29.4297C58.1724 29.4583 57.6265 29.3322 57.146 29.0658C56.6655 28.7994 56.27 28.4034 56.0047 27.9233H55.9637V32.188H54.1914V20.7294H55.9069V22.1615H55.9395C56.217 21.6836 56.6192 21.2897 57.1033 21.0217C57.5874 20.7536 58.1354 20.6215 58.6888 20.6393C60.8803 20.6393 62.3248 22.3667 62.3248 25.0349ZM60.5031 25.0349C60.5031 23.2917 59.5997 22.1457 58.2213 22.1457C56.8672 22.1457 55.9563 23.3159 55.9563 25.0349C55.9563 26.7698 56.8672 27.9316 58.2213 27.9316C59.5997 27.9316 60.5031 26.794 60.5031 25.0349H60.5031Z" fill="white"/>
<path d="M68.6033 26.0492C68.7346 27.2203 69.8755 27.9892 71.4346 27.9892C72.9284 27.9892 74.0032 27.2202 74.0032 26.1643C74.0032 25.2476 73.355 24.6988 71.8201 24.3226L70.2853 23.9539C68.1107 23.4301 67.1011 22.4159 67.1011 20.7702C67.1011 18.7326 68.8818 17.333 71.4104 17.333C73.9128 17.333 75.6284 18.7326 75.6861 20.7702H73.897C73.7899 19.5917 72.8129 18.8803 71.3852 18.8803C69.9575 18.8803 68.9805 19.6 68.9805 20.6476C68.9805 21.4826 69.6045 21.9739 71.1309 22.35L72.4357 22.6694C74.8656 23.2425 75.8751 24.2158 75.8751 25.9432C75.8751 28.1526 74.1103 29.5364 71.3032 29.5364C68.6769 29.5364 66.9036 28.1851 66.7891 26.0491L68.6033 26.0492Z" fill="white"/>
<path d="M79.7002 18.6914V20.729H81.3421V22.1286H79.7002V26.8753C79.7002 27.6128 80.029 27.9564 80.7508 27.9564C80.9457 27.953 81.1403 27.9393 81.3338 27.9155V29.3067C81.0093 29.3672 80.6794 29.3946 80.3493 29.3884C78.6012 29.3884 77.9195 28.7337 77.9195 27.0638V22.1286H76.6641V20.729H77.9195V18.6914H79.7002Z" fill="white"/>
<path d="M82.293 25.0345C82.293 22.3254 83.893 20.623 86.388 20.623C88.8915 20.623 90.484 22.3254 90.484 25.0345C90.484 27.751 88.8998 29.4459 86.388 29.4459C83.8771 29.4459 82.293 27.751 82.293 25.0345ZM88.6782 25.0345C88.6782 23.1761 87.8241 22.0793 86.388 22.0793C84.9519 22.0793 84.0988 23.1845 84.0988 25.0345C84.0988 26.9003 84.9519 27.9888 86.388 27.9888C87.8241 27.9888 88.6781 26.9003 88.6781 25.0345H88.6782Z" fill="white"/>
<path d="M91.9453 20.7293H93.6357V22.1948H93.6767C93.7911 21.7371 94.06 21.3326 94.4382 21.0493C94.8164 20.766 95.2809 20.6212 95.7536 20.6392C95.9578 20.6385 96.1615 20.6606 96.3608 20.7051V22.3583C96.103 22.2797 95.834 22.2436 95.5645 22.2515C95.307 22.2411 95.0503 22.2863 94.8121 22.3842C94.5738 22.482 94.3596 22.6301 94.1841 22.8183C94.0087 23.0065 93.8761 23.2303 93.7956 23.4744C93.7151 23.7185 93.6885 23.9771 93.7176 24.2324V29.3395H91.9453L91.9453 20.7293Z" fill="white"/>
<path d="M104.535 26.8102C104.296 28.3733 102.77 29.4459 100.817 29.4459C98.3051 29.4459 96.7461 27.7677 96.7461 25.0754C96.7461 22.3746 98.3135 20.623 100.742 20.623C103.131 20.623 104.634 22.2595 104.634 24.8701V25.4756H98.5352V25.5824C98.507 25.8993 98.5468 26.2185 98.6519 26.5189C98.757 26.8193 98.9249 27.0939 99.1446 27.3246C99.3643 27.5553 99.6307 27.7367 99.9261 27.8568C100.221 27.9769 100.539 28.033 100.858 28.0213C101.277 28.0604 101.697 27.9637 102.056 27.7455C102.416 27.5273 102.695 27.1993 102.852 26.8102L104.535 26.8102ZM98.5436 24.2404H102.86C102.876 23.9555 102.833 23.6704 102.733 23.403C102.633 23.1355 102.479 22.8915 102.28 22.6864C102.081 22.4812 101.842 22.3192 101.577 22.2105C101.313 22.1019 101.029 22.049 100.742 22.0551C100.454 22.0534 100.168 22.1087 99.9007 22.2178C99.6336 22.327 99.3908 22.4878 99.1864 22.6909C98.982 22.8941 98.8199 23.1356 98.7096 23.4016C98.5992 23.6675 98.5428 23.9526 98.5436 24.2404V24.2404Z" fill="white"/>
<path d="M36.2859 8.6412C36.6575 8.61462 37.0303 8.67059 37.3776 8.8051C37.7248 8.9396 38.0378 9.14928 38.294 9.41901C38.5501 9.68875 38.743 10.0118 38.8588 10.3649C38.9746 10.718 39.0103 11.0923 38.9635 11.4608C38.9635 13.2737 37.9809 14.3158 36.2859 14.3158H34.2305V8.6412H36.2859ZM35.1143 13.5133H36.1872C36.4527 13.5291 36.7184 13.4857 36.965 13.3862C37.2115 13.2867 37.4328 13.1336 37.6125 12.9381C37.7923 12.7426 37.9261 12.5096 38.0041 12.2561C38.0822 12.0025 38.1026 11.7348 38.0638 11.4724C38.0998 11.211 38.0773 10.9449 37.9981 10.6932C37.9188 10.4415 37.7847 10.2104 37.6053 10.0165C37.426 9.82256 37.2058 9.67058 36.9606 9.57145C36.7155 9.47232 36.4513 9.42849 36.1872 9.44311H35.1143V13.5133Z" fill="white"/>
<path d="M39.9627 12.1731C39.9357 11.8917 39.968 11.6077 40.0575 11.3395C40.147 11.0712 40.2917 10.8246 40.4824 10.6154C40.6731 10.4062 40.9055 10.239 41.1648 10.1246C41.424 10.0103 41.7044 9.95117 41.9879 9.95117C42.2714 9.95117 42.5518 10.0103 42.811 10.1246C43.0703 10.239 43.3027 10.4062 43.4934 10.6154C43.6841 10.8246 43.8288 11.0712 43.9183 11.3395C44.0078 11.6077 44.0401 11.8917 44.0131 12.1731C44.0406 12.4548 44.0087 12.7392 43.9194 13.0078C43.8302 13.2765 43.6855 13.5236 43.4948 13.7332C43.3041 13.9428 43.0715 14.1104 42.8119 14.225C42.5524 14.3396 42.2717 14.3988 41.9879 14.3988C41.7041 14.3988 41.4234 14.3396 41.1638 14.225C40.9043 14.1104 40.6717 13.9428 40.481 13.7332C40.2903 13.5236 40.1456 13.2765 40.0564 13.0078C39.9671 12.7392 39.9352 12.4548 39.9627 12.1731ZM43.1413 12.1731C43.1413 11.2448 42.7232 10.702 41.9893 10.702C41.2526 10.702 40.8382 11.2448 40.8382 12.1731C40.8382 13.1088 41.2526 13.6475 41.9893 13.6475C42.7232 13.6475 43.1414 13.1051 43.1414 12.1731H43.1413Z" fill="white"/>
<path d="M49.3971 14.3156H48.518L47.6304 11.1616H47.5634L46.6795 14.3156H45.8087L44.625 10.0332H45.4846L46.2539 13.3009H46.3172L47.2001 10.0332H48.0132L48.8961 13.3009H48.9632L49.7287 10.0332H50.5762L49.3971 14.3156Z" fill="white"/>
<path d="M51.5742 10.0341H52.3901V10.7144H52.4534C52.5608 10.4701 52.742 10.2653 52.9718 10.1285C53.2015 9.99175 53.4683 9.92987 53.7349 9.95148C53.9439 9.93582 54.1537 9.96723 54.3488 10.0434C54.5439 10.1196 54.7194 10.2386 54.8621 10.3915C55.0049 10.5445 55.1113 10.7275 55.1734 10.9271C55.2356 11.1266 55.252 11.3375 55.2213 11.5442V14.3165H54.3738V11.7565C54.3738 11.0683 54.0739 10.726 53.4471 10.726C53.3053 10.7195 53.1636 10.7435 53.032 10.7966C52.9003 10.8497 52.7817 10.9306 52.6843 11.0337C52.5869 11.1367 52.513 11.2596 52.4677 11.3938C52.4224 11.528 52.4067 11.6704 52.4217 11.8113V14.3165H51.5742L51.5742 10.0341Z" fill="white"/>
<path d="M56.5703 8.3623H57.4178V14.3164H56.5703V8.3623Z" fill="white"/>
<path d="M58.5955 12.1732C58.5685 11.8917 58.6008 11.6078 58.6903 11.3395C58.7799 11.0713 58.9246 10.8246 59.1153 10.6154C59.306 10.4062 59.5384 10.239 59.7977 10.1246C60.057 10.0103 60.3374 9.95117 60.6209 9.95117C60.9044 9.95117 61.1848 10.0103 61.4441 10.1246C61.7034 10.239 61.9358 10.4062 62.1265 10.6154C62.3172 10.8246 62.462 11.0713 62.5515 11.3395C62.641 11.6078 62.6733 11.8917 62.6463 12.1732C62.6738 12.4549 62.6419 12.7392 62.5526 13.0079C62.4633 13.2766 62.3186 13.5237 62.1279 13.7333C61.9371 13.9429 61.7045 14.1104 61.445 14.225C61.1855 14.3397 60.9048 14.3989 60.6209 14.3989C60.3371 14.3989 60.0564 14.3397 59.7968 14.225C59.5373 14.1104 59.3047 13.9429 59.1139 13.7333C58.9232 13.5237 58.7785 13.2766 58.6892 13.0079C58.5999 12.7392 58.568 12.4549 58.5955 12.1732ZM61.7741 12.1732C61.7741 11.2449 61.356 10.7021 60.6221 10.7021C59.8854 10.7021 59.471 11.2449 59.471 12.1732C59.471 13.1089 59.8854 13.6475 60.6221 13.6475C61.356 13.6475 61.7741 13.1052 61.7741 12.1732H61.7741Z" fill="white"/>
<path d="M63.5391 13.1051C63.5391 12.3343 64.1146 11.8899 65.1363 11.8267L66.2995 11.7599V11.3902C66.2995 10.9379 65.9996 10.6825 65.4204 10.6825C64.9472 10.6825 64.6194 10.8557 64.5253 11.1585H63.7048C63.7915 10.423 64.4853 9.95117 65.4595 9.95117C66.5361 9.95117 67.1433 10.4856 67.1433 11.3902V14.3162H66.3275V13.7144H66.2604C66.1243 13.9302 65.9332 14.1062 65.7066 14.2244C65.48 14.3425 65.226 14.3985 64.9705 14.3867C64.7902 14.4054 64.608 14.3863 64.4356 14.3304C64.2633 14.2746 64.1045 14.1834 63.9696 14.0626C63.8348 13.9419 63.7268 13.7943 63.6526 13.6294C63.5785 13.4645 63.5398 13.2859 63.5391 13.1051ZM66.2995 12.7392V12.3812L65.2509 12.448C64.6595 12.4875 64.3912 12.6881 64.3912 13.0656C64.3912 13.4511 64.7265 13.6753 65.1876 13.6753C65.3226 13.689 65.4591 13.6754 65.5888 13.6354C65.7185 13.5953 65.8388 13.5297 65.9426 13.4423C66.0463 13.355 66.1314 13.2477 66.1927 13.1269C66.254 13.0061 66.2904 12.8743 66.2995 12.7392Z" fill="white"/>
<path d="M68.2578 12.1733C68.2578 10.8202 68.9554 9.96298 70.0404 9.96298C70.3088 9.95065 70.5751 10.0147 70.8083 10.1478C71.0415 10.2808 71.2319 10.4773 71.3573 10.7143H71.4206V8.3623H72.2681V14.3164H71.456V13.6398H71.389C71.2539 13.8752 71.0569 14.0692 70.8192 14.2009C70.5815 14.3326 70.3121 14.3969 70.0404 14.3869C68.9479 14.387 68.2578 13.5298 68.2578 12.1733ZM69.1333 12.1733C69.1333 13.0816 69.5626 13.6282 70.2807 13.6282C70.995 13.6282 71.4365 13.0738 71.4365 12.1771C71.4365 11.2846 70.9904 10.7222 70.2807 10.7222C69.5673 10.7222 69.1333 11.2725 69.1333 12.1733H69.1333Z" fill="white"/>
<path d="M75.7713 12.1731C75.7443 11.8917 75.7766 11.6077 75.8661 11.3395C75.9556 11.0712 76.1003 10.8246 76.291 10.6154C76.4817 10.4062 76.7141 10.239 76.9733 10.1246C77.2326 10.0103 77.513 9.95117 77.7965 9.95117C78.08 9.95117 78.3604 10.0103 78.6196 10.1246C78.8789 10.239 79.1113 10.4062 79.302 10.6154C79.4927 10.8246 79.6374 11.0712 79.7269 11.3395C79.8164 11.6077 79.8487 11.8917 79.8217 12.1731C79.8492 12.4548 79.8173 12.7392 79.728 13.0078C79.6388 13.2765 79.4941 13.5236 79.3034 13.7332C79.1127 13.9428 78.8801 14.1104 78.6205 14.225C78.361 14.3396 78.0803 14.3988 77.7965 14.3988C77.5126 14.3988 77.2319 14.3396 76.9724 14.225C76.7129 14.1104 76.4803 13.9428 76.2896 13.7332C76.0988 13.5236 75.9542 13.2765 75.8649 13.0078C75.7757 12.7392 75.7438 12.4548 75.7713 12.1731ZM78.9499 12.1731C78.9499 11.2448 78.5318 10.702 77.7979 10.702C77.0612 10.702 76.6468 11.2448 76.6468 12.1731C76.6468 13.1088 77.0612 13.6475 77.7979 13.6475C78.5318 13.6475 78.9499 13.1051 78.9499 12.1731Z" fill="white"/>
<path d="M80.9648 10.0341H81.7807V10.7144H81.844C81.9515 10.4701 82.1327 10.2653 82.3624 10.1285C82.5921 9.99175 82.8589 9.92987 83.1255 9.95148C83.3345 9.93582 83.5443 9.96723 83.7394 10.0434C83.9345 10.1196 84.11 10.2386 84.2527 10.3915C84.3955 10.5445 84.5019 10.7275 84.5641 10.9271C84.6263 11.1266 84.6426 11.3375 84.6119 11.5442V14.3165H83.7644V11.7565C83.7644 11.0683 83.4645 10.726 82.8378 10.726C82.6959 10.7195 82.5543 10.7435 82.4226 10.7966C82.2909 10.8497 82.1723 10.9306 82.075 11.0337C81.9776 11.1367 81.9037 11.2596 81.8583 11.3938C81.813 11.528 81.7973 11.6704 81.8124 11.8113V14.3165H80.9648V10.0341Z" fill="white"/>
<path d="M89.4013 8.9668V10.0525H90.3317V10.7643H89.4013V12.9664C89.4013 13.4149 89.5866 13.6114 90.0085 13.6114C90.1165 13.611 90.2244 13.6045 90.3317 13.5919V14.2958C90.1795 14.323 90.0253 14.3374 89.8707 14.339C88.9282 14.339 88.5528 14.0084 88.5528 13.1827V10.7643H87.8711V10.0524H88.5528V8.9668H89.4013Z" fill="white"/>
<path d="M91.4883 8.3623H92.3283V10.7222H92.3954C92.5081 10.4756 92.6942 10.2696 92.9285 10.1323C93.1629 9.99505 93.4339 9.93315 93.7048 9.95507C93.9127 9.9438 94.1205 9.9784 94.3134 10.0564C94.5063 10.1344 94.6796 10.254 94.8208 10.4064C94.9621 10.5589 95.0678 10.7406 95.1306 10.9386C95.1933 11.1365 95.2115 11.3458 95.1838 11.5516V14.3164H94.3354V11.76C94.3354 11.076 94.0159 10.7296 93.4171 10.7296C93.2714 10.7177 93.1249 10.7377 92.9878 10.7881C92.8507 10.8386 92.7263 10.9183 92.6233 11.0217C92.5203 11.1251 92.4412 11.2497 92.3916 11.3868C92.3419 11.5239 92.3229 11.6701 92.3358 11.8153V14.3164H91.4883L91.4883 8.3623Z" fill="white"/>
<path d="M100.125 13.16C100.009 13.5514 99.7599 13.8899 99.4198 14.1164C99.0796 14.3429 98.6704 14.4429 98.2638 14.3989C97.9809 14.4064 97.6997 14.3523 97.4398 14.2405C97.1799 14.1288 96.9475 13.9619 96.7588 13.7516C96.5701 13.5413 96.4295 13.2926 96.3468 13.0227C96.2641 12.7528 96.2413 12.4681 96.28 12.1885C96.2424 11.9081 96.2655 11.6229 96.348 11.3521C96.4305 11.0814 96.5704 10.8315 96.7581 10.6194C96.9459 10.4072 97.1771 10.2378 97.4362 10.1225C97.6954 10.0072 97.9763 9.94883 98.26 9.95124C99.4549 9.95124 100.176 10.7653 100.176 12.11V12.4049H97.1434V12.4523C97.1301 12.6095 97.1499 12.7676 97.2015 12.9167C97.2531 13.0658 97.3354 13.2025 97.4431 13.318C97.5508 13.4335 97.6815 13.5253 97.8268 13.5875C97.9722 13.6496 98.1289 13.6809 98.2871 13.6791C98.4898 13.7034 98.6952 13.667 98.8771 13.5745C99.059 13.4821 99.2093 13.3378 99.3087 13.16L100.125 13.16ZM97.1434 11.7799H99.3124C99.3231 11.6362 99.3035 11.4918 99.2549 11.3561C99.2063 11.2204 99.1298 11.0963 99.0302 10.9918C98.9307 10.8873 98.8103 10.8048 98.6769 10.7494C98.5434 10.6941 98.3998 10.6672 98.2554 10.6705C98.1088 10.6687 97.9633 10.6962 97.8275 10.7513C97.6918 10.8064 97.5684 10.888 97.4648 10.9914C97.3612 11.0948 97.2793 11.2178 97.2241 11.3532C97.1689 11.4887 97.1415 11.6337 97.1434 11.7799H97.1434Z" fill="white"/>
</svg>
