<svg width="53" height="35" viewBox="0 0 53 35" fill="none" xmlns="http://www.w3.org/2000/svg">
<path d="M6.49079 28.007C6.93812 28.1317 7.29012 28.359 7.54679 28.689C7.80345 29.0117 7.93179 29.4223 7.93179 29.921C7.93179 30.5883 7.67879 31.1017 7.17279 31.461C6.67412 31.8203 5.94445 32 4.98379 32H1.30979V24.3H4.76379C5.64379 24.3 6.32212 24.476 6.79879 24.828C7.28279 25.18 7.52479 25.6677 7.52479 26.291C7.52479 26.6943 7.42945 27.0427 7.23879 27.336C7.05545 27.6293 6.80612 27.853 6.49079 28.007ZM2.40979 25.191V27.655H4.66479C5.22945 27.655 5.66212 27.5523 5.96279 27.347C6.27079 27.1343 6.42479 26.8263 6.42479 26.423C6.42479 26.0197 6.27079 25.7153 5.96279 25.51C5.66212 25.2973 5.22945 25.191 4.66479 25.191H2.40979ZM4.93979 31.109C5.56312 31.109 6.03245 31.0063 6.34779 30.801C6.66312 30.5957 6.82079 30.273 6.82079 29.833C6.82079 28.975 6.19379 28.546 4.93979 28.546H2.40979V31.109H4.93979ZM11.978 32.066C11.3986 32.066 10.878 31.9377 10.416 31.681C9.95398 31.4243 9.59098 31.0723 9.32698 30.625C9.07031 30.1703 8.94198 29.657 8.94198 29.085C8.94198 28.513 9.07031 28.0033 9.32698 27.556C9.59098 27.1013 9.95398 26.7493 10.416 26.5C10.878 26.2433 11.3986 26.115 11.978 26.115C12.5573 26.115 13.0743 26.2433 13.529 26.5C13.991 26.7493 14.3503 27.1013 14.607 27.556C14.871 28.0033 15.003 28.513 15.003 29.085C15.003 29.657 14.871 30.1703 14.607 30.625C14.3503 31.0723 13.991 31.4243 13.529 31.681C13.0743 31.9377 12.5573 32.066 11.978 32.066ZM11.978 31.142C12.352 31.142 12.6856 31.0577 12.979 30.889C13.2796 30.713 13.5143 30.471 13.683 30.163C13.8516 29.8477 13.936 29.4883 13.936 29.085C13.936 28.6817 13.8516 28.326 13.683 28.018C13.5143 27.7027 13.2796 27.4607 12.979 27.292C12.6856 27.1233 12.352 27.039 11.978 27.039C11.604 27.039 11.2666 27.1233 10.966 27.292C10.6726 27.4607 10.438 27.7027 10.262 28.018C10.0933 28.326 10.009 28.6817 10.009 29.085C10.009 29.4883 10.0933 29.8477 10.262 30.163C10.438 30.471 10.6726 30.713 10.966 30.889C11.2666 31.0577 11.604 31.142 11.978 31.142ZM18.9604 32.066C18.3811 32.066 17.8604 31.9377 17.3984 31.681C16.9364 31.4243 16.5734 31.0723 16.3094 30.625C16.0527 30.1703 15.9244 29.657 15.9244 29.085C15.9244 28.513 16.0527 28.0033 16.3094 27.556C16.5734 27.1013 16.9364 26.7493 17.3984 26.5C17.8604 26.2433 18.3811 26.115 18.9604 26.115C19.5397 26.115 20.0567 26.2433 20.5114 26.5C20.9734 26.7493 21.3327 27.1013 21.5894 27.556C21.8534 28.0033 21.9854 28.513 21.9854 29.085C21.9854 29.657 21.8534 30.1703 21.5894 30.625C21.3327 31.0723 20.9734 31.4243 20.5114 31.681C20.0567 31.9377 19.5397 32.066 18.9604 32.066ZM18.9604 31.142C19.3344 31.142 19.6681 31.0577 19.9614 30.889C20.2621 30.713 20.4967 30.471 20.6654 30.163C20.8341 29.8477 20.9184 29.4883 20.9184 29.085C20.9184 28.6817 20.8341 28.326 20.6654 28.018C20.4967 27.7027 20.2621 27.4607 19.9614 27.292C19.6681 27.1233 19.3344 27.039 18.9604 27.039C18.5864 27.039 18.2491 27.1233 17.9484 27.292C17.6551 27.4607 17.4204 27.7027 17.2444 28.018C17.0757 28.326 16.9914 28.6817 16.9914 29.085C16.9914 29.4883 17.0757 29.8477 17.2444 30.163C17.4204 30.471 17.6551 30.713 17.9484 30.889C18.2491 31.0577 18.5864 31.142 18.9604 31.142ZM25.7118 29.283L24.5018 30.405V32H23.4458V23.838H24.5018V29.074L27.6808 26.17H28.9568L26.5038 28.579L29.1988 32H27.9008L25.7118 29.283ZM30.1489 26.17H31.2049V32H30.1489V26.17ZM30.6769 25.048C30.4716 25.048 30.2993 24.982 30.1599 24.85C30.0279 24.718 29.9619 24.5567 29.9619 24.366C29.9619 24.1753 30.0279 24.014 30.1599 23.882C30.2993 23.7427 30.4716 23.673 30.6769 23.673C30.8823 23.673 31.0509 23.739 31.1829 23.871C31.3223 23.9957 31.3919 24.1533 31.3919 24.344C31.3919 24.542 31.3223 24.7107 31.1829 24.85C31.0509 24.982 30.8823 25.048 30.6769 25.048ZM36.3342 26.115C37.0749 26.115 37.6615 26.3313 38.0942 26.764C38.5342 27.1893 38.7542 27.8163 38.7542 28.645V32H37.6982V28.766C37.6982 28.2013 37.5625 27.776 37.2912 27.49C37.0199 27.204 36.6312 27.061 36.1252 27.061C35.5532 27.061 35.1022 27.2297 34.7722 27.567C34.4422 27.897 34.2772 28.3737 34.2772 28.997V32H33.2212V26.17H34.2332V27.05C34.4459 26.7493 34.7319 26.5183 35.0912 26.357C35.4579 26.1957 35.8722 26.115 36.3342 26.115ZM46.3177 26.17V31.208C46.3177 32.2273 46.0647 32.979 45.5587 33.463C45.0527 33.9543 44.2974 34.2 43.2927 34.2C42.7427 34.2 42.2184 34.123 41.7197 33.969C41.2211 33.8223 40.8177 33.6097 40.5097 33.331L41.0157 32.517C41.2871 32.7517 41.6207 32.935 42.0167 33.067C42.4201 33.2063 42.8344 33.276 43.2597 33.276C43.9417 33.276 44.4441 33.1147 44.7667 32.792C45.0967 32.4693 45.2617 31.978 45.2617 31.318V30.856C45.0124 31.1567 44.7044 31.384 44.3377 31.538C43.9784 31.6847 43.5861 31.758 43.1607 31.758C42.6034 31.758 42.0974 31.6407 41.6427 31.406C41.1954 31.164 40.8434 30.8303 40.5867 30.405C40.3301 29.9723 40.2017 29.481 40.2017 28.931C40.2017 28.381 40.3301 27.8933 40.5867 27.468C40.8434 27.0353 41.1954 26.7017 41.6427 26.467C42.0974 26.2323 42.6034 26.115 43.1607 26.115C43.6007 26.115 44.0077 26.1957 44.3817 26.357C44.7631 26.5183 45.0747 26.7567 45.3167 27.072V26.17H46.3177ZM43.2817 30.834C43.6631 30.834 44.0041 30.7533 44.3047 30.592C44.6127 30.4307 44.8511 30.207 45.0197 29.921C45.1957 29.6277 45.2837 29.2977 45.2837 28.931C45.2837 28.3663 45.0967 27.9117 44.7227 27.567C44.3487 27.215 43.8684 27.039 43.2817 27.039C42.6877 27.039 42.2037 27.215 41.8297 27.567C41.4557 27.9117 41.2687 28.3663 41.2687 28.931C41.2687 29.2977 41.3531 29.6277 41.5217 29.921C41.6977 30.207 41.9361 30.4307 42.2367 30.592C42.5447 30.7533 42.8931 30.834 43.2817 30.834ZM50.0075 32.066C49.5308 32.066 49.0725 32.0037 48.6325 31.879C48.1925 31.747 47.8478 31.582 47.5985 31.384L48.0385 30.548C48.2951 30.7313 48.6068 30.878 48.9735 30.988C49.3401 31.098 49.7105 31.153 50.0845 31.153C51.0085 31.153 51.4705 30.889 51.4705 30.361C51.4705 30.185 51.4081 30.0457 51.2835 29.943C51.1588 29.8403 51.0011 29.767 50.8105 29.723C50.6271 29.6717 50.3631 29.6167 50.0185 29.558C49.5491 29.4847 49.1641 29.4003 48.8635 29.305C48.5701 29.2097 48.3171 29.0483 48.1045 28.821C47.8918 28.5937 47.7855 28.2747 47.7855 27.864C47.7855 27.336 48.0055 26.9143 48.4455 26.599C48.8855 26.2763 49.4758 26.115 50.2165 26.115C50.6051 26.115 50.9938 26.1627 51.3825 26.258C51.7711 26.3533 52.0901 26.4817 52.3395 26.643L51.8885 27.479C51.4118 27.171 50.8508 27.017 50.2055 27.017C49.7581 27.017 49.4171 27.0903 49.1825 27.237C48.9478 27.3837 48.8305 27.578 48.8305 27.82C48.8305 28.0107 48.8965 28.161 49.0285 28.271C49.1605 28.381 49.3218 28.4617 49.5125 28.513C49.7105 28.5643 49.9855 28.623 50.3375 28.689C50.8068 28.7697 51.1845 28.8577 51.4705 28.953C51.7638 29.041 52.0131 29.195 52.2185 29.415C52.4238 29.635 52.5265 29.943 52.5265 30.339C52.5265 30.867 52.2991 31.2887 51.8445 31.604C51.3971 31.912 50.7848 32.066 50.0075 32.066Z" fill="#757575"/>
<path d="M16 0.989749C16.0018 0.727987 16.1069 0.477449 16.2925 0.292258C16.4781 0.107066 16.7294 0.00208779 16.992 0H35.008C35.556 0 36 0.443543 36 0.989749V16.9513C35.9982 17.2131 35.8931 17.4636 35.7075 17.6488C35.5219 17.834 35.2706 17.939 35.008 17.9411H16.992C16.7288 17.9408 16.4765 17.8364 16.2905 17.6508C16.1045 17.4652 16 17.2136 16 16.9513V0.989749ZM25 1.99345H18V15.9476H25V1.99345ZM27 1.99345V15.9476H34V1.99345H27ZM28 3.98691H33V5.98036H28V3.98691ZM28 6.97708H33V8.97054H28V6.97708Z" fill="#415859"/>
</svg>
