<svg width="162" height="50" viewBox="0 0 162 50" fill="none" xmlns="http://www.w3.org/2000/svg">
<g clip-path="url(#clip0_3402_3908)">
<path d="M155.98 0.824219H5.24852C2.46203 0.824219 0.203125 3.20653 0.203125 6.14525V44.5032C0.203125 47.4419 2.46203 49.8242 5.24852 49.8242H155.98C158.767 49.8242 161.026 47.4419 161.026 44.5032V6.14525C161.026 3.20653 158.767 0.824219 155.98 0.824219Z" fill="#1D1D1D"/>
<path d="M56.4242 14.0591C56.4242 14.8259 56.27 15.4997 55.9659 16.0853C55.6619 16.6708 55.2168 17.1262 54.6396 17.4515C54.0623 17.7768 53.3749 17.9395 52.5774 17.9395H49.9688V10.1973H52.5774C53.3749 10.1973 54.0623 10.3599 54.6396 10.6759C55.2168 10.9919 55.6619 11.4427 55.9659 12.0236C56.27 12.6045 56.4242 13.283 56.4242 14.0591ZM52.4496 16.5593C53.2427 16.5593 53.8552 16.3409 54.2871 15.8994C54.7189 15.4625 54.9348 14.8491 54.9348 14.0591C54.9348 13.2598 54.7189 12.6417 54.2871 12.2049C53.8552 11.768 53.2427 11.5496 52.4496 11.5496H51.4317V16.5593H52.4496Z" fill="white"/>
<path d="M60.9675 10.0898C61.6505 10.0898 62.2762 10.2571 62.8314 10.5917C63.391 10.931 63.8317 11.4004 64.1533 11.9998C64.475 12.604 64.6336 13.2871 64.6336 14.0446C64.6336 14.8067 64.475 15.4899 64.1533 16.0987C63.8317 16.7028 63.391 17.1768 62.8314 17.5114C62.2762 17.846 61.6505 18.018 60.9675 18.018C60.2801 18.018 59.6587 17.846 59.0991 17.5114C58.5439 17.1768 58.1033 16.7028 57.7816 16.0987C57.4555 15.4899 57.2969 14.8067 57.2969 14.0446C57.2969 13.2871 57.4555 12.604 57.7816 11.9998C58.1033 11.4004 58.5439 10.931 59.0991 10.5917C59.6587 10.2571 60.2801 10.0898 60.9675 10.0898ZM60.9675 11.5119C60.5356 11.5119 60.1567 11.6188 59.8306 11.8232C59.5089 12.0277 59.2533 12.3205 59.0683 12.7016C58.8832 13.0873 58.7951 13.5334 58.7951 14.0446C58.7951 14.5604 58.8832 15.0066 59.0683 15.3876C59.2533 15.7734 59.5089 16.0661 59.8306 16.2706C60.1567 16.4751 60.5356 16.5773 60.9675 16.5773C61.3949 16.5773 61.7738 16.4751 62.0999 16.2706C62.426 16.0661 62.6816 15.7734 62.8622 15.3876C63.0473 15.0066 63.1398 14.5604 63.1398 14.0446C63.1398 13.5334 63.0473 13.0873 62.8622 12.7016C62.6816 12.3205 62.426 12.0277 62.0999 11.8232C61.7738 11.6188 61.3949 11.5119 60.9675 11.5119Z" fill="white"/>
<path d="M75.3609 10.1973L73.5631 17.9395H71.7565L70.3816 12.3257L68.998 17.9395H67.2002L65.4023 10.1973H66.9931L68.1167 16.1968L69.5709 10.1973H71.1836L72.6466 16.1968L73.7702 10.1973H75.3609Z" fill="white"/>
<path d="M82.5764 17.9395H81.1134L77.8262 12.6789V17.9395H76.3633V10.1973H77.8262L81.1134 15.5044V10.1973H82.5764V17.9395Z" fill="white"/>
<path d="M85.3736 16.7545H87.8368V17.9395H83.9062V10.1973H85.3736V16.7545Z" fill="white"/>
<path d="M92.1471 10.0898C92.8345 10.0898 93.4559 10.2571 94.0155 10.5917C94.5707 10.931 95.0113 11.4004 95.333 11.9998C95.6591 12.604 95.8177 13.2871 95.8177 14.0446C95.8177 14.8067 95.6591 15.4899 95.333 16.0987C95.0113 16.7028 94.5707 17.1768 94.0155 17.5114C93.4559 17.846 92.8345 18.018 92.1471 18.018C91.4641 18.018 90.8384 17.846 90.2832 17.5114C89.7236 17.1768 89.2829 16.7028 88.9613 16.0987C88.6396 15.4899 88.4766 14.8067 88.4766 14.0446C88.4766 13.2871 88.6396 12.604 88.9613 11.9998C89.2829 11.4004 89.7236 10.931 90.2832 10.5917C90.8384 10.2571 91.4641 10.0898 92.1471 10.0898ZM92.1471 11.5119C91.7197 11.5119 91.3408 11.6188 91.0147 11.8232C90.6886 12.0277 90.433 12.3205 90.2524 12.7016C90.0673 13.0873 89.9748 13.5334 89.9748 14.0446C89.9748 14.5604 90.0673 15.0066 90.2524 15.3876C90.433 15.7734 90.6886 16.0661 91.0147 16.2706C91.3408 16.4751 91.7197 16.5773 92.1471 16.5773C92.579 16.5773 92.9579 16.4751 93.2796 16.2706C93.6057 16.0661 93.8613 15.7734 94.0463 15.3876C94.2314 15.0066 94.3195 14.5604 94.3195 14.0446C94.3195 13.5334 94.2314 13.0873 94.0463 12.7016C93.8613 12.3205 93.6057 12.0277 93.2796 11.8232C92.9579 11.6188 92.579 11.5119 92.1471 11.5119Z" fill="white"/>
<path d="M101.397 16.3832H98.4533L97.9334 17.9401H96.3867L99.0879 10.2861H100.762L103.455 17.9401H101.904L101.397 16.3832ZM101 15.2122L99.9207 11.9452L98.8367 15.2122H101Z" fill="white"/>
<path d="M110.698 14.0591C110.698 14.8259 110.548 15.4997 110.239 16.0853C109.935 16.6708 109.495 17.1262 108.917 17.4515C108.336 17.7768 107.648 17.9395 106.851 17.9395H104.242V10.1973H106.851C107.648 10.1973 108.336 10.3599 108.917 10.6759C109.495 10.9919 109.935 11.4427 110.239 12.0236C110.548 12.6045 110.698 13.283 110.698 14.0591ZM106.727 16.5593C107.516 16.5593 108.129 16.3409 108.561 15.8994C108.997 15.4625 109.213 14.8491 109.213 14.0591C109.213 13.2598 108.997 12.6417 108.561 12.2049C108.129 11.768 107.516 11.5496 106.727 11.5496H105.71V16.5593H106.727Z" fill="white"/>
<path d="M118.615 10.1973V11.4288H115.526V13.5014H118.002V14.6818H115.526V17.9395H114.059V10.1973H118.615Z" fill="white"/>
<path d="M123.434 17.9395L121.72 14.9235H121.077V17.9395H119.609V10.1973H122.407C123.258 10.1973 123.91 10.4203 124.355 10.8572C124.8 11.294 125.025 11.8749 125.025 12.5906C125.025 13.1761 124.871 13.6641 124.562 14.0591C124.254 14.4541 123.809 14.7143 123.227 14.8491L125.056 17.9395H123.434ZM121.077 13.8593H122.28C123.121 13.8593 123.54 13.4689 123.54 12.6882C123.54 12.3164 123.439 12.0236 123.231 11.8145C123.029 11.61 122.712 11.5031 122.28 11.5031H121.077V13.8593Z" fill="white"/>
<path d="M129.456 10.0898C130.143 10.0898 130.764 10.2571 131.324 10.5917C131.879 10.931 132.32 11.4004 132.642 11.9998C132.963 12.604 133.126 13.2871 133.126 14.0446C133.126 14.8067 132.963 15.4899 132.642 16.0987C132.32 16.7028 131.879 17.1768 131.324 17.5114C130.764 17.846 130.143 18.018 129.456 18.018C128.768 18.018 128.147 17.846 127.592 17.5114C127.032 17.1768 126.592 16.7028 126.27 16.0987C125.948 15.4899 125.785 14.8067 125.785 14.0446C125.785 13.2871 125.948 12.604 126.27 11.9998C126.592 11.4004 127.032 10.931 127.592 10.5917C128.147 10.2571 128.768 10.0898 129.456 10.0898ZM129.456 11.5119C129.028 11.5119 128.649 11.6188 128.323 11.8232C127.997 12.0277 127.742 12.3205 127.561 12.7016C127.376 13.0873 127.283 13.5334 127.283 14.0446C127.283 14.5604 127.376 15.0066 127.561 15.3876C127.742 15.7734 127.997 16.0661 128.323 16.2706C128.649 16.4751 129.028 16.5773 129.456 16.5773C129.888 16.5773 130.262 16.4751 130.588 16.2706C130.914 16.0661 131.17 15.7734 131.355 15.3876C131.536 15.0066 131.628 14.5604 131.628 14.0446C131.628 13.5334 131.536 13.0873 131.355 12.7016C131.17 12.3205 130.914 12.0277 130.588 11.8232C130.262 11.6188 129.888 11.5119 129.456 11.5119Z" fill="white"/>
<path d="M142.132 10.2861V17.9401H140.678V12.6004L138.819 17.9401H137.55L135.69 12.6237V17.9401H134.223V10.2861H135.998L138.206 16.044L140.365 10.2861H142.132Z" fill="white"/>
<path d="M56.0849 25.3281C57.5919 25.3281 58.8434 25.7185 59.8348 26.4992C60.8263 27.2846 61.4652 28.3395 61.7428 29.6733H59.1518C58.905 29.0784 58.5173 28.609 57.9841 28.2559C57.4553 27.9073 56.8252 27.7307 56.1025 27.7307C55.3887 27.7307 54.7586 27.9027 54.2078 28.2466C53.6614 28.5951 53.2339 29.0877 52.9299 29.7244C52.6258 30.3657 52.4716 31.1185 52.4716 31.9829C52.4716 33.3492 52.8197 34.4134 53.516 35.1802C54.2122 35.9423 55.1596 36.3234 56.3625 36.3234C57.2526 36.3234 58.0149 36.0492 58.6495 35.4915C59.2884 34.9385 59.6982 34.1671 59.8877 33.1819H55.6971V31.3184H61.9543V33.8278C61.7781 34.6922 61.4388 35.4869 60.9276 36.2165C60.4209 36.9415 59.7555 37.5224 58.9315 37.9592C58.1075 38.4007 57.1645 38.6191 56.1025 38.6191C54.8864 38.6191 53.8156 38.3356 52.8858 37.778C51.9561 37.2156 51.2378 36.4349 50.7311 35.4311C50.2199 34.4227 49.9688 33.2748 49.9688 31.9829C49.9688 30.6863 50.2199 29.5385 50.7311 28.5347C51.2378 27.5309 51.9517 26.7455 52.877 26.1786C53.798 25.6116 54.8687 25.3281 56.0849 25.3281Z" fill="white"/>
<path d="M68.2996 28.1357C69.247 28.1357 70.0975 28.3495 70.851 28.7678C71.6045 29.186 72.1949 29.7901 72.6268 30.5848C73.063 31.3795 73.2789 32.3136 73.2789 33.3871C73.2789 34.4606 73.063 35.39 72.6268 36.18C72.1949 36.9654 71.6045 37.5742 70.851 37.9971C70.0975 38.4246 69.247 38.6384 68.2996 38.6384C67.3522 38.6384 66.5018 38.4246 65.7483 37.9971C64.9948 37.5742 64.4043 36.9654 63.9725 36.18C63.5362 35.39 63.3203 34.4606 63.3203 33.3871C63.3203 32.3136 63.5362 31.3795 63.9725 30.5848C64.4043 29.7901 64.9948 29.186 65.7483 28.7678C66.5018 28.3495 67.3522 28.1357 68.2996 28.1357ZM68.2996 30.3943C67.6122 30.3943 67.0262 30.6499 66.5458 31.1611C66.0699 31.6723 65.8276 32.4158 65.8276 33.3871C65.8276 34.363 66.0699 35.1019 66.5458 35.6131C67.0262 36.1243 67.6122 36.3799 68.2996 36.3799C68.987 36.3799 69.5731 36.1243 70.0534 35.6131C70.5293 35.1019 70.7716 34.363 70.7716 33.3871C70.7716 32.4158 70.5293 31.6723 70.0534 31.1611C69.5731 30.6499 68.987 30.3943 68.2996 30.3943Z" fill="white"/>
<path d="M79.5145 28.1357C80.4574 28.1357 81.3079 28.3495 82.0614 28.7678C82.8149 29.186 83.4098 29.7901 83.8416 30.5848C84.2734 31.3795 84.4894 32.3136 84.4894 33.3871C84.4894 34.4606 84.2734 35.39 83.8416 36.18C83.4098 36.9654 82.8149 37.5742 82.0614 37.9971C81.3079 38.4246 80.4574 38.6384 79.5145 38.6384C78.5671 38.6384 77.7166 38.4246 76.9631 37.9971C76.2096 37.5742 75.6147 36.9654 75.1829 36.18C74.7511 35.39 74.5352 34.4606 74.5352 33.3871C74.5352 32.3136 74.7511 31.3795 75.1829 30.5848C75.6147 29.7901 76.2096 29.186 76.9631 28.7678C77.7166 28.3495 78.5671 28.1357 79.5145 28.1357ZM79.5145 30.3943C78.8226 30.3943 78.241 30.6499 77.7607 31.1611C77.2804 31.6723 77.0424 32.4158 77.0424 33.3871C77.0424 34.363 77.2804 35.1019 77.7607 35.6131C78.241 36.1243 78.8226 36.3799 79.5145 36.3799C80.2019 36.3799 80.7879 36.1243 81.2638 35.6131C81.7441 35.1019 81.9821 34.363 81.9821 33.3871C81.9821 32.4158 81.7441 31.6723 81.2638 31.1611C80.7879 30.6499 80.2019 30.3943 79.5145 30.3943Z" fill="white"/>
<path d="M90.0458 28.1357C90.8654 28.1357 91.566 28.3402 92.1477 28.7492C92.7337 29.1535 93.148 29.7018 93.3947 30.3943V28.2659H95.8491V38.5455C95.8491 39.4935 95.6684 40.3486 95.3115 41.1061C94.9546 41.8635 94.4258 42.4584 93.7164 42.8859C93.0113 43.3181 92.1565 43.5365 91.1518 43.5365C89.7462 43.5365 88.6137 43.1834 87.75 42.4816C86.8864 41.7799 86.3576 40.8226 86.1725 39.6143H88.6093C88.7503 40.1348 89.0191 40.5391 89.4245 40.8272C89.8255 41.1154 90.3454 41.2594 90.9756 41.2594C91.6982 41.2594 92.2843 41.0363 92.7293 40.5856C93.17 40.1348 93.3947 39.4563 93.3947 38.5455V36.3613C93.148 37.0537 92.7337 37.6067 92.1477 38.0157C91.566 38.4293 90.8654 38.6384 90.0458 38.6384C89.2262 38.6384 88.4903 38.4293 87.8382 38.0064C87.1816 37.5881 86.6704 36.984 86.3047 36.1893C85.9346 35.3947 85.7539 34.4606 85.7539 33.3871C85.7539 32.3136 85.9346 31.3795 86.3047 30.5848C86.6704 29.7901 87.1816 29.186 87.8382 28.7678C88.4903 28.3495 89.2262 28.1357 90.0458 28.1357ZM90.8169 30.4129C90.0458 30.4129 89.4289 30.6778 88.9574 31.2075C88.4903 31.7373 88.2568 32.4623 88.2568 33.3871C88.2568 34.3119 88.4903 35.0368 88.9574 35.5573C89.4289 36.0824 90.0458 36.3427 90.8169 36.3427C91.566 36.3427 92.1829 36.0778 92.6676 35.5387C93.1524 35.0043 93.3947 34.2886 93.3947 33.3871C93.3947 32.4762 93.1524 31.7513 92.6676 31.2168C92.1829 30.6778 91.566 30.4129 90.8169 30.4129Z" fill="white"/>
<path d="M100.565 24.8262V38.5075H98.0977V24.8262H100.565Z" fill="white"/>
<path d="M111.94 33.0014C111.94 33.2569 111.909 33.5544 111.852 33.8843H104.736C104.771 34.7998 105.004 35.469 105.436 35.9012C105.868 36.3334 106.406 36.5472 107.049 36.5472C107.622 36.5472 108.098 36.3984 108.477 36.1057C108.856 35.8083 109.102 35.4086 109.204 34.9021H111.817C111.689 35.6177 111.416 36.259 110.993 36.826C110.574 37.393 110.032 37.8344 109.371 38.1551C108.71 38.4757 107.979 38.6384 107.172 38.6384C106.225 38.6384 105.383 38.4246 104.647 37.9971C103.912 37.5742 103.339 36.9654 102.929 36.18C102.524 35.39 102.316 34.4606 102.316 33.3871C102.316 32.3136 102.524 31.3795 102.929 30.5848C103.339 29.7901 103.912 29.186 104.647 28.7678C105.383 28.3495 106.225 28.1357 107.172 28.1357C108.129 28.1357 108.97 28.3495 109.688 28.7678C110.407 29.186 110.962 29.7623 111.354 30.4965C111.742 31.2261 111.94 32.0626 111.94 33.0014ZM109.45 32.7411C109.486 31.9 109.279 31.268 108.829 30.8358C108.38 30.4036 107.824 30.1898 107.172 30.1898C106.507 30.1898 105.947 30.4036 105.489 30.8358C105.035 31.268 104.784 31.9 104.736 32.7411H109.45Z" fill="white"/>
<path d="M119.988 33.665V38.5073H117.516V25.458H122.019C123.478 25.458 124.579 25.8251 125.324 26.564C126.064 27.3029 126.434 28.3114 126.434 29.5801C126.434 30.8209 126.051 31.8154 125.289 32.5543C124.522 33.2932 123.434 33.665 122.019 33.665H119.988ZM121.755 31.5737C123.204 31.5737 123.927 30.9092 123.927 29.5801C123.927 28.9248 123.76 28.4276 123.42 28.0837C123.081 27.7351 122.526 27.5632 121.755 27.5632H119.988V31.5737H121.755Z" fill="white"/>
<path d="M130.523 24.8262V38.5075H128.051V24.8262H130.523Z" fill="white"/>
<path d="M136.561 28.1357C137.381 28.1357 138.082 28.3402 138.663 28.7492C139.249 29.1535 139.664 29.7018 139.91 30.3943V28.2659H142.365V38.5083H139.91V36.3613C139.664 37.0537 139.249 37.6067 138.663 38.0157C138.082 38.4293 137.381 38.6384 136.561 38.6384C135.746 38.6384 135.01 38.4293 134.354 38.0064C133.702 37.5881 133.19 36.984 132.82 36.1893C132.45 35.3947 132.27 34.4606 132.27 33.3871C132.27 32.3136 132.45 31.3795 132.82 30.5848C133.19 29.7901 133.702 29.186 134.354 28.7678C135.01 28.3495 135.746 28.1357 136.561 28.1357ZM137.333 30.4129C136.561 30.4129 135.945 30.6778 135.477 31.2075C135.01 31.7373 134.772 32.4623 134.772 33.3871C134.772 34.3119 135.01 35.0368 135.477 35.5573C135.945 36.0824 136.561 36.3427 137.333 36.3427C138.082 36.3427 138.699 36.0778 139.183 35.5387C139.668 35.0043 139.91 34.2886 139.91 33.3871C139.91 32.4762 139.668 31.7513 139.183 31.2168C138.699 30.6778 138.082 30.4129 137.333 30.4129Z" fill="white"/>
<path d="M146.277 28.2656L148.921 35.2178L151.376 28.2656H154.095L148.15 43.3876H145.418L147.608 38.2106L143.523 28.2656H146.277Z" fill="white"/>
<path fill-rule="evenodd" clip-rule="evenodd" d="M33.7206 19.2129L27.6133 25.3704L33.7339 31.5187C36.6069 29.7853 39.1362 28.2145 41.172 26.8389C42.4146 25.9978 42.3749 24.506 41.1631 23.7486C39.2992 22.5868 36.6906 21.0021 33.7206 19.2129Z" fill="url(#paint0_linear_3402_3908)"/>
<path fill-rule="evenodd" clip-rule="evenodd" d="M33.726 19.2131L27.8698 25.4496L10.8477 7.0049C11.4557 6.53553 12.3326 6.47047 13.2888 7.03278C19.2023 10.5368 27.3058 15.3466 33.726 19.2131Z" fill="url(#paint1_linear_3402_3908)"/>
<path fill-rule="evenodd" clip-rule="evenodd" d="M33.7365 31.5184L27.8407 25.3516L10.9375 43.5732C11.5852 44.0565 12.4709 44.2006 13.2553 43.7219C20.6537 39.2281 27.9024 35.041 33.7365 31.5184Z" fill="url(#paint2_linear_3402_3908)"/>
<path fill-rule="evenodd" clip-rule="evenodd" d="M10.8504 7.00488L27.899 25.4171L10.943 43.5736C10.3878 43.1554 10 42.4769 10 41.7101V9.00782C10 8.12486 10.3261 7.40919 10.8504 7.00488Z" fill="url(#paint3_linear_3402_3908)"/>
</g>
<defs>
<linearGradient id="paint0_linear_3402_3908" x1="41.3658" y1="22.5263" x2="28.1413" y2="27.7084" gradientUnits="userSpaceOnUse">
<stop stop-color="#FFDB00"/>
<stop offset="1" stop-color="#FFBC00"/>
</linearGradient>
<linearGradient id="paint1_linear_3402_3908" x1="22.2868" y1="6.62848" x2="22.2868" y2="25.4496" gradientUnits="userSpaceOnUse">
<stop stop-color="#10D774"/>
<stop offset="1" stop-color="#00F076"/>
</linearGradient>
<linearGradient id="paint2_linear_3402_3908" x1="13.0041" y1="40.4363" x2="32.1619" y2="29.8227" gradientUnits="userSpaceOnUse">
<stop stop-color="#E02554"/>
<stop offset="1" stop-color="#FF3A44"/>
</linearGradient>
<linearGradient id="paint3_linear_3402_3908" x1="29.0579" y1="18.5485" x2="8.24107" y2="31.0292" gradientUnits="userSpaceOnUse">
<stop stop-color="#00C3FF"/>
<stop offset="1" stop-color="#00E3FF"/>
</linearGradient>
<clipPath id="clip0_3402_3908">
<rect width="161" height="49" fill="white" transform="translate(0.117188 0.824219)"/>
</clipPath>
</defs>
</svg>
