<svg width="22" height="21" viewBox="0 0 22 21" fill="none" xmlns="http://www.w3.org/2000/svg">
<path d="M17.3734 20.9796C16.0987 20.9796 15.1073 20.2714 14.5408 18.9968L13.5022 16.6363H6.65668L5.61805 19.0911C5.09874 20.2714 4.06012 20.9323 2.83265 20.9323C1.22747 20.9323 0 19.6577 0 18.0525C0 17.5332 0.188841 17.1084 0.330472 16.7778L6.75106 2.2371C7.36479 0.820793 8.54505 0.0654297 10.0086 0.0654297H10.2446C11.7082 0.0654297 12.8412 0.820793 13.5022 2.2371L19.97 16.8251C20.1588 17.25 20.2532 17.6748 20.2532 18.0525C20.2532 19.6577 18.9785 20.9796 17.3734 20.9796ZM11.1888 11.1126L10.103 8.46885L9.01715 11.1126H11.1888ZM20.8669 2.42594H19.5922V1.19847C19.5922 0.584742 19.0729 0.0654297 18.4592 0.0654297C17.8455 0.0654297 17.3261 0.584742 17.3261 1.19847V2.47315H16.0515C15.4377 2.47315 14.9184 2.99246 14.9184 3.6062C14.9184 4.21993 15.4377 4.73924 16.0515 4.73924H17.3261V6.01392C17.3261 6.62765 17.8455 7.14696 18.4592 7.14696C19.0729 7.14696 19.5922 6.62765 19.5922 6.01392V4.73924H20.8669C21.4806 4.73924 22 4.21993 22 3.6062C22 2.94525 21.4806 2.42594 20.8669 2.42594Z" fill="#025B5D"/>
</svg>
