<svg width="53" height="36" viewBox="0 0 53 36" fill="none" xmlns="http://www.w3.org/2000/svg">
<path d="M2.62463 26.257V28.941H6.48563V29.887H2.62463V33H1.52463V25.3H6.95863V26.257H2.62463ZM10.2719 27.115C11.0786 27.115 11.6946 27.313 12.1199 27.709C12.5526 28.105 12.7689 28.6953 12.7689 29.48V33H11.7679V32.23C11.5919 32.5013 11.3389 32.7103 11.0089 32.857C10.6863 32.9963 10.3013 33.066 9.85395 33.066C9.20128 33.066 8.67695 32.9083 8.28095 32.593C7.89228 32.2777 7.69795 31.8633 7.69795 31.35C7.69795 30.8367 7.88495 30.426 8.25895 30.118C8.63295 29.8027 9.22695 29.645 10.0409 29.645H11.7129V29.436C11.7129 28.9813 11.5809 28.633 11.3169 28.391C11.0529 28.149 10.6643 28.028 10.1509 28.028C9.80628 28.028 9.46895 28.0867 9.13895 28.204C8.80895 28.314 8.53028 28.4643 8.30295 28.655L7.86295 27.863C8.16362 27.621 8.52295 27.4377 8.94095 27.313C9.35895 27.181 9.80262 27.115 10.2719 27.115ZM10.0299 32.252C10.4333 32.252 10.7816 32.164 11.0749 31.988C11.3683 31.8047 11.5809 31.548 11.7129 31.218V30.404H10.0849C9.19028 30.404 8.74295 30.7047 8.74295 31.306C8.74295 31.5993 8.85662 31.8303 9.08395 31.999C9.31128 32.1677 9.62662 32.252 10.0299 32.252ZM19.7747 27.17L17.2227 33H16.1447L13.5927 27.17H14.6927L16.6947 31.845L18.7407 27.17H19.7747ZM23.0961 33.066C22.5168 33.066 21.9961 32.9377 21.5341 32.681C21.0721 32.4243 20.7091 32.0723 20.4451 31.625C20.1885 31.1703 20.0601 30.657 20.0601 30.085C20.0601 29.513 20.1885 29.0033 20.4451 28.556C20.7091 28.1013 21.0721 27.7493 21.5341 27.5C21.9961 27.2433 22.5168 27.115 23.0961 27.115C23.6755 27.115 24.1925 27.2433 24.6471 27.5C25.1091 27.7493 25.4685 28.1013 25.7251 28.556C25.9891 29.0033 26.1211 29.513 26.1211 30.085C26.1211 30.657 25.9891 31.1703 25.7251 31.625C25.4685 32.0723 25.1091 32.4243 24.6471 32.681C24.1925 32.9377 23.6755 33.066 23.0961 33.066ZM23.0961 32.142C23.4701 32.142 23.8038 32.0577 24.0971 31.889C24.3978 31.713 24.6325 31.471 24.8011 31.163C24.9698 30.8477 25.0541 30.4883 25.0541 30.085C25.0541 29.6817 24.9698 29.326 24.8011 29.018C24.6325 28.7027 24.3978 28.4607 24.0971 28.292C23.8038 28.1233 23.4701 28.039 23.0961 28.039C22.7221 28.039 22.3848 28.1233 22.0841 28.292C21.7908 28.4607 21.5561 28.7027 21.3801 29.018C21.2115 29.326 21.1271 29.6817 21.1271 30.085C21.1271 30.4883 21.2115 30.8477 21.3801 31.163C21.5561 31.471 21.7908 31.713 22.0841 31.889C22.3848 32.0577 22.7221 32.142 23.0961 32.142ZM33.0156 27.17V33H32.0146V32.12C31.8019 32.4207 31.5196 32.6553 31.1676 32.824C30.8229 32.9853 30.4452 33.066 30.0346 33.066C29.2572 33.066 28.6449 32.8533 28.1976 32.428C27.7502 31.9953 27.5266 31.361 27.5266 30.525V27.17H28.5826V30.404C28.5826 30.9687 28.7182 31.3977 28.9896 31.691C29.2609 31.977 29.6496 32.12 30.1556 32.12C30.7129 32.12 31.1529 31.9513 31.4756 31.614C31.7982 31.2767 31.9596 30.8 31.9596 30.184V27.17H33.0156ZM36.0379 28.149C36.2212 27.8117 36.4926 27.555 36.8519 27.379C37.2112 27.203 37.6476 27.115 38.1609 27.115V28.138C38.1022 28.1307 38.0216 28.127 37.9189 28.127C37.3469 28.127 36.8959 28.2993 36.5659 28.644C36.2432 28.9813 36.0819 29.4653 36.0819 30.096V33H35.0259V27.17H36.0379V28.149ZM39.4624 27.17H40.5184V33H39.4624V27.17ZM39.9904 26.048C39.7851 26.048 39.6128 25.982 39.4734 25.85C39.3414 25.718 39.2754 25.5567 39.2754 25.366C39.2754 25.1753 39.3414 25.014 39.4734 24.882C39.6128 24.7427 39.7851 24.673 39.9904 24.673C40.1958 24.673 40.3644 24.739 40.4964 24.871C40.6358 24.9957 40.7054 25.1533 40.7054 25.344C40.7054 25.542 40.6358 25.7107 40.4964 25.85C40.3644 25.982 40.1958 26.048 39.9904 26.048ZM45.8127 32.659C45.6587 32.791 45.468 32.8937 45.2407 32.967C45.0134 33.033 44.7787 33.066 44.5367 33.066C43.95 33.066 43.4954 32.9083 43.1727 32.593C42.85 32.2777 42.6887 31.8267 42.6887 31.24V28.039H41.6987V27.17H42.6887V25.894H43.7447V27.17H45.4167V28.039H43.7447V31.196C43.7447 31.5113 43.8217 31.7533 43.9757 31.922C44.137 32.0907 44.3644 32.175 44.6577 32.175C44.9804 32.175 45.2554 32.0833 45.4827 31.9L45.8127 32.659ZM52.165 30.118C52.165 30.1987 52.1577 30.305 52.143 30.437H47.413C47.479 30.9503 47.7027 31.3647 48.084 31.68C48.4727 31.988 48.953 32.142 49.525 32.142C50.2217 32.142 50.7827 31.9073 51.208 31.438L51.791 32.12C51.527 32.428 51.197 32.6627 50.801 32.824C50.4124 32.9853 49.976 33.066 49.492 33.066C48.876 33.066 48.3297 32.9413 47.853 32.692C47.3764 32.4353 47.006 32.0797 46.742 31.625C46.4854 31.1703 46.357 30.657 46.357 30.085C46.357 29.5203 46.4817 29.0107 46.731 28.556C46.9877 28.1013 47.336 27.7493 47.776 27.5C48.2234 27.2433 48.7257 27.115 49.283 27.115C49.8404 27.115 50.3354 27.2433 50.768 27.5C51.208 27.7493 51.549 28.1013 51.791 28.556C52.0404 29.0107 52.165 29.5313 52.165 30.118ZM49.283 28.006C48.777 28.006 48.3517 28.16 48.007 28.468C47.6697 28.776 47.4717 29.1793 47.413 29.678H51.153C51.0944 29.1867 50.8927 28.787 50.548 28.479C50.2107 28.1637 49.789 28.006 49.283 28.006Z" fill="#757575"/>
<path d="M29.5 0C32.538 0 35 2.49182 35 5.98036C35 12.9574 27.5 16.9443 25 18.4394C22.5 16.9443 15 12.9574 15 5.98036C15 2.49182 17.5 0 20.5 0C22.36 0 24 0.996726 25 1.99345C26 0.996726 27.64 0 29.5 0ZM25.934 15.5529C26.815 14.9987 27.61 14.4475 28.354 13.8575C31.335 11.4952 33 8.91372 33 5.98036C33 3.62808 31.463 1.99345 29.5 1.99345C28.424 1.99345 27.26 2.56159 26.414 3.40282L25 4.81219L23.586 3.40282C22.74 2.56159 21.576 1.99345 20.5 1.99345C18.56 1.99345 17 3.64403 17 5.98036C17 8.91472 18.666 11.4952 21.645 13.8575C22.39 14.4475 23.185 14.9987 24.066 15.5519C24.365 15.7403 24.661 15.9207 25 16.122C25.339 15.9207 25.635 15.7403 25.934 15.5529Z" fill="#415859"/>
</svg>
