<svg width="35" height="37" viewBox="0 0 35 37" fill="none" xmlns="http://www.w3.org/2000/svg">
<path d="M8.1271 26.3V34H7.0271V30.568H2.6051V34H1.5051V26.3H2.6051V29.611H7.0271V26.3H8.1271ZM12.7749 34.066C12.1955 34.066 11.6749 33.9377 11.2129 33.681C10.7509 33.4243 10.3879 33.0723 10.1239 32.625C9.86719 32.1703 9.73886 31.657 9.73886 31.085C9.73886 30.513 9.86719 30.0033 10.1239 29.556C10.3879 29.1013 10.7509 28.7493 11.2129 28.5C11.6749 28.2433 12.1955 28.115 12.7749 28.115C13.3542 28.115 13.8712 28.2433 14.3259 28.5C14.7879 28.7493 15.1472 29.1013 15.4039 29.556C15.6679 30.0033 15.7999 30.513 15.7999 31.085C15.7999 31.657 15.6679 32.1703 15.4039 32.625C15.1472 33.0723 14.7879 33.4243 14.3259 33.681C13.8712 33.9377 13.3542 34.066 12.7749 34.066ZM12.7749 33.142C13.1489 33.142 13.4825 33.0577 13.7759 32.889C14.0765 32.713 14.3112 32.471 14.4799 32.163C14.6485 31.8477 14.7329 31.4883 14.7329 31.085C14.7329 30.6817 14.6485 30.326 14.4799 30.018C14.3112 29.7027 14.0765 29.4607 13.7759 29.292C13.4825 29.1233 13.1489 29.039 12.7749 29.039C12.4009 29.039 12.0635 29.1233 11.7629 29.292C11.4695 29.4607 11.2349 29.7027 11.0589 30.018C10.8902 30.326 10.8059 30.6817 10.8059 31.085C10.8059 31.4883 10.8902 31.8477 11.0589 32.163C11.2349 32.471 11.4695 32.713 11.7629 32.889C12.0635 33.0577 12.4009 33.142 12.7749 33.142ZM24.5533 28.115C25.2866 28.115 25.8659 28.3277 26.2913 28.753C26.7239 29.1783 26.9403 29.809 26.9403 30.645V34H25.8843V30.766C25.8843 30.2013 25.7523 29.776 25.4883 29.49C25.2316 29.204 24.8613 29.061 24.3773 29.061C23.8419 29.061 23.4166 29.2297 23.1013 29.567C22.7859 29.897 22.6283 30.3737 22.6283 30.997V34H21.5723V30.766C21.5723 30.2013 21.4403 29.776 21.1763 29.49C20.9196 29.204 20.5493 29.061 20.0653 29.061C19.5299 29.061 19.1046 29.2297 18.7893 29.567C18.4739 29.897 18.3163 30.3737 18.3163 30.997V34H17.2603V28.17H18.2723V29.039C18.4849 28.7383 18.7636 28.511 19.1083 28.357C19.4529 28.1957 19.8453 28.115 20.2853 28.115C20.7399 28.115 21.1433 28.2067 21.4953 28.39C21.8473 28.5733 22.1186 28.841 22.3093 29.193C22.5293 28.8557 22.8336 28.5917 23.2223 28.401C23.6183 28.2103 24.0619 28.115 24.5533 28.115ZM34.1846 31.118C34.1846 31.1987 34.1772 31.305 34.1626 31.437H29.4326C29.4986 31.9503 29.7222 32.3647 30.1036 32.68C30.4922 32.988 30.9726 33.142 31.5446 33.142C32.2412 33.142 32.8022 32.9073 33.2276 32.438L33.8106 33.12C33.5466 33.428 33.2166 33.6627 32.8206 33.824C32.4319 33.9853 31.9956 34.066 31.5116 34.066C30.8956 34.066 30.3492 33.9413 29.8726 33.692C29.3959 33.4353 29.0256 33.0797 28.7616 32.625C28.5049 32.1703 28.3766 31.657 28.3766 31.085C28.3766 30.5203 28.5012 30.0107 28.7506 29.556C29.0072 29.1013 29.3556 28.7493 29.7956 28.5C30.2429 28.2433 30.7452 28.115 31.3026 28.115C31.8599 28.115 32.3549 28.2433 32.7876 28.5C33.2276 28.7493 33.5686 29.1013 33.8106 29.556C34.0599 30.0107 34.1846 30.5313 34.1846 31.118ZM31.3026 29.006C30.7966 29.006 30.3712 29.16 30.0266 29.468C29.6892 29.776 29.4912 30.1793 29.4326 30.678H33.1726C33.1139 30.1867 32.9122 29.787 32.5676 29.479C32.2302 29.1637 31.8086 29.006 31.3026 29.006Z" fill="#E8625D"/>
<path d="M27 19.6385C27 19.9322 26.8829 20.2139 26.6746 20.4216C26.4662 20.6293 26.1836 20.746 25.8889 20.746H8.11111C7.81643 20.746 7.53381 20.6293 7.32544 20.4216C7.11706 20.2139 7 19.9322 7 19.6385V7.99894C6.99988 7.83018 7.03846 7.66362 7.1128 7.51199C7.18713 7.36035 7.29524 7.22766 7.42889 7.12404L16.3178 0.233338C16.5128 0.0821072 16.7529 0 17 0C17.2471 0 17.4872 0.0821072 17.6822 0.233338L26.5711 7.12404C26.7048 7.22766 26.8129 7.36035 26.8872 7.51199C26.9615 7.66362 27.0001 7.83018 27 7.99894V19.6385ZM15.8889 11.8862V18.531H18.1111V11.8862H15.8889Z" fill="#E8625D"/>
</svg>
