<svg width="31" height="33" viewBox="0 0 31 33" fill="none" xmlns="http://www.w3.org/2000/svg">
<g clip-path="url(#clip0_3402_3961)">
<path d="M27.0175 0.000976562H3.01583C1.36572 0.000976562 0.015625 1.45042 0.015625 3.22197V28.9899C0.015625 30.7614 1.36572 32.2109 3.01583 32.2109H27.0175C28.6676 32.2109 30.0177 30.7614 30.0177 28.9899V3.22197C30.0177 1.45042 28.6676 0.000976562 27.0175 0.000976562ZM9.01624 27.3794H4.51593V12.8849H9.01624V27.3794ZM6.76609 10.1471C5.26598 10.1471 4.0659 8.8587 4.0659 7.2482C4.0659 5.63771 5.26598 4.34931 6.76609 4.34931C8.26619 4.34931 9.46627 5.63771 9.46627 7.2482C9.46627 8.8587 8.26619 10.1471 6.76609 10.1471ZM25.5174 27.3794H21.0171V18.8438C21.0171 17.5554 19.967 16.428 18.7669 16.428C17.5668 16.428 16.5168 17.5554 16.5168 18.8438V27.3794H12.0164V12.8849H16.5168V14.8175C17.2668 13.5291 18.9169 12.5628 20.267 12.5628C23.1172 12.5628 25.5174 15.1396 25.5174 18.1996V27.3794Z" fill="white"/>
</g>
<defs>
<clipPath id="clip0_3402_3961">
<rect width="30.0021" height="32.2099" fill="white" transform="translate(0.0117188 0.00195312)"/>
</clipPath>
</defs>
</svg>
