<svg width="31" height="33" viewBox="0 0 31 33" fill="none" xmlns="http://www.w3.org/2000/svg">
<g clip-path="url(#clip0_3402_3956)">
<path d="M15.0167 0.000976562C6.7321 0.000976562 0.015625 7.21138 0.015625 16.1059C0.015625 25.0005 6.7321 32.2109 15.0167 32.2109C23.3012 32.2109 30.0177 25.0005 30.0177 16.1059C30.0177 7.21138 23.3012 0.000976562 15.0167 0.000976562ZM16.7428 21.4552C15.3552 21.4552 14.0501 20.6499 13.6033 19.7355C13.6033 19.7355 12.8568 22.9137 12.7 23.5269C12.1435 25.6951 10.5067 27.8639 10.3793 28.0415C10.2906 28.1651 10.0945 28.1266 10.0742 27.9625C10.0395 27.6863 9.6215 24.951 10.1132 22.7202C10.359 21.5999 11.7654 15.2027 11.7654 15.2027C11.7654 15.2027 11.3559 14.3219 11.3559 13.0197C11.3559 10.9751 12.4596 9.44877 13.8341 9.44877C15.0025 9.44877 15.5667 10.3909 15.5667 11.5201C15.5667 12.7815 14.819 14.6676 14.4332 16.4153C14.1106 17.8787 15.1161 19.0725 16.4604 19.0725C18.8953 19.0725 20.534 15.7155 20.534 11.7372C20.534 8.71429 18.6384 6.45053 15.1879 6.45053C11.2909 6.45053 8.86063 9.57135 8.86063 13.0579C8.86063 14.2593 9.1915 15.1078 9.70897 15.7632C9.94623 16.0647 9.97999 16.186 9.89374 16.532C9.83144 16.786 9.69117 17.397 9.63163 17.6385C9.546 17.9884 9.28265 18.113 8.9877 17.9841C7.19341 17.1976 6.35672 15.0867 6.35672 12.7139C6.35672 8.79502 9.43489 4.09583 15.5406 4.09583C20.4468 4.09583 23.676 7.90698 23.676 11.9989C23.6763 17.4121 20.8731 21.4552 16.7428 21.4552Z" fill="white"/>
</g>
<defs>
<clipPath id="clip0_3402_3956">
<rect width="30.0021" height="32.2099" fill="white" transform="translate(0.0195312 0.00195312)"/>
</clipPath>
</defs>
</svg>
