<svg width="236" height="236" viewBox="0 0 236 236" fill="none" xmlns="http://www.w3.org/2000/svg">
<path d="M117.805 197.038C97.9338 197.064 78.778 189.639 64.1303 176.234C49.4825 162.829 40.4111 144.421 38.7123 124.656C37.0135 104.89 42.8112 85.2084 54.9574 69.508C67.1036 53.8075 84.7125 43.2332 104.297 39.879C123.882 36.5249 144.014 40.6354 160.707 51.3966C177.4 62.1578 189.437 78.7851 194.433 97.9857C199.43 117.186 197.023 137.56 187.688 155.073C178.352 172.585 162.77 185.96 144.027 192.547C135.603 195.512 126.737 197.031 117.805 197.038ZM117.805 40.4607C105.416 40.4858 93.2127 43.4675 82.2127 49.1573C71.2127 54.847 61.7346 63.0798 54.5688 73.1693C47.403 83.2587 42.7572 94.9123 41.0188 107.158C39.2804 119.404 40.4998 131.888 44.5752 143.568C49.2963 156.951 57.6115 168.781 68.612 177.764C79.6124 186.748 92.8748 192.54 106.95 194.507C121.024 196.474 135.37 194.54 148.419 188.917C161.467 183.295 172.716 174.199 180.937 162.625C189.157 151.05 194.032 137.443 195.03 123.289C196.027 109.135 193.108 94.98 186.592 82.3705C180.075 69.7611 170.213 59.1827 158.081 51.7914C145.95 44.4001 132.017 40.4805 117.805 40.4607Z" fill="#002177"/>
<path d="M117.807 193.346C98.8542 193.346 80.5924 186.241 66.6368 173.438C52.6812 160.636 44.0492 143.069 42.4497 124.215C40.8501 105.36 46.3997 86.5941 57.9997 71.6305C69.5997 56.667 86.4045 46.5972 105.087 43.4147C123.77 40.2322 142.968 44.169 158.882 54.4457C174.796 64.7224 186.264 80.5899 191.018 98.9067C195.771 117.224 193.462 136.655 184.548 153.353C175.635 170.051 160.766 182.799 142.885 189.074C134.826 191.897 126.348 193.342 117.807 193.346ZM117.807 47.284C102.788 47.2681 88.1535 52.0219 76.0195 60.8579C63.8856 69.6938 54.8812 82.1539 50.3085 96.4362C45.7359 110.719 45.832 126.083 50.583 140.307C55.334 154.531 64.4937 166.878 76.7373 175.562C88.9809 184.246 103.674 188.816 118.691 188.613C133.709 188.41 148.272 183.444 160.276 174.432C172.279 165.42 181.1 152.83 185.463 138.482C189.827 124.135 189.506 108.774 184.547 94.6202C179.691 80.8086 170.665 68.8397 158.713 60.3622C146.76 51.8847 132.469 47.3155 117.807 47.284Z" fill="#002177"/>
<path d="M117.807 165.617C105.84 165.641 94.2999 161.175 85.4749 153.105C76.6499 145.035 71.1836 133.949 70.1595 122.045C69.1354 110.141 72.6282 98.2874 79.9456 88.8331C87.263 79.3789 97.8711 73.0141 109.667 71.0002C121.464 68.9864 133.587 71.4704 143.636 77.96C153.684 84.4496 160.924 94.4712 163.92 106.039C166.916 117.606 165.45 129.875 159.812 140.414C154.175 150.953 144.777 158.993 133.481 162.941C128.443 164.7 123.145 165.605 117.807 165.617ZM117.807 71.8519C108.007 71.8473 98.459 74.9548 90.5443 80.725C82.6296 86.4952 76.7583 94.6291 73.7794 103.95C70.8006 113.272 70.8685 123.297 73.9734 132.578C77.0783 141.858 83.0592 149.912 91.0514 155.575C99.0435 161.238 108.633 164.216 118.432 164.079C128.231 163.942 137.733 160.697 145.563 154.813C153.394 148.929 159.146 140.711 161.99 131.348C164.833 121.984 164.62 111.961 161.381 102.726C158.206 93.7145 152.311 85.9068 144.507 80.3778C136.704 74.8488 127.376 71.8702 117.807 71.8519Z" fill="#002177"/>
<path d="M70.6418 76.499C71.637 76.1023 72.7265 76.0044 73.7766 76.2173C74.8843 76.4113 75.9219 76.8915 76.7861 77.61C77.6712 78.2893 78.3673 79.1835 78.808 80.2076C79.2278 81.161 79.369 82.2134 79.2155 83.2434C79.069 84.3024 78.6293 85.2996 77.9459 86.1227C77.2838 86.962 76.414 87.6145 75.4224 88.0161C74.4284 88.4163 73.3393 88.5196 72.2876 88.3135C71.1884 88.0982 70.1572 87.6217 69.2815 86.9244C68.4057 86.2271 67.711 85.3295 67.2562 84.3075C66.8237 83.3245 66.6875 82.2369 66.8644 81.1778C67.0494 80.1397 67.4941 79.165 68.1572 78.3444C68.8203 77.5237 69.6803 76.8835 70.6575 76.4833L70.6418 76.499ZM68.3221 81.3969C68.2138 82.164 68.328 82.946 68.6512 83.6503C69.0066 84.4329 69.5439 85.1196 70.2186 85.6532C70.8878 86.2128 71.6844 86.5997 72.5384 86.7799C73.305 86.9783 74.1137 86.9401 74.8581 86.6704C75.5898 86.3745 76.2323 85.8947 76.7234 85.2777C77.2143 84.6682 77.5336 83.9389 77.6481 83.1652C77.7582 82.3981 77.6439 81.6156 77.319 80.9118C76.9281 80.1377 76.3742 79.4572 75.6951 78.9169C75.016 78.3767 74.2279 77.9896 73.3848 77.7821C72.6251 77.6221 71.8351 77.6874 71.112 77.9699C70.3873 78.2551 69.7536 78.7309 69.2782 79.347C68.7878 79.9365 68.4584 80.6427 68.3221 81.3969Z" fill="#002177"/>
<path d="M81.8476 65.6074L83.415 73.9636L86.299 77.5471L85.0608 78.5486L82.2238 74.9651L74.3867 71.5851L75.8131 70.4428L81.7535 73.1499L80.3899 66.7185L81.8476 65.6074Z" fill="#002177"/>
<path d="M86.6467 64.2779L88.6373 67.8927L92.7283 65.7175L93.3082 66.766L89.2643 68.9724L91.2862 72.6967L95.8004 70.2399L96.4117 71.3509L90.5182 74.4806L84.7031 63.8397L90.5809 60.6318L91.1922 61.7429L86.6467 64.2779Z" fill="#002177"/>
<path d="M103.417 63.3387C104.014 63.6919 104.464 64.2471 104.686 64.9036C104.846 65.3195 104.911 65.7657 104.875 66.2098C104.84 66.6538 104.706 67.0843 104.482 67.4699C103.897 68.3446 103.01 68.9739 101.99 69.2382L97.7112 70.6622L93.8711 59.145L98.0874 57.7366C99.0127 57.3652 100.04 57.332 100.987 57.6427C101.664 57.9808 102.196 58.552 102.484 59.251C102.772 59.9499 102.797 60.7294 102.555 61.4453C102.303 62.0305 101.868 62.519 101.316 62.838C102.054 62.7513 102.798 62.9288 103.417 63.3387ZM97.0373 63.7612L99.5294 62.9319C100.171 62.7956 100.734 62.4135 101.097 61.8678C101.229 61.631 101.307 61.368 101.326 61.0976C101.345 60.8271 101.304 60.5558 101.207 60.303C101.136 60.0394 101.006 59.7954 100.827 59.5893C100.647 59.3833 100.424 59.2206 100.172 59.1137C99.5561 58.8804 98.8758 58.8804 98.2598 59.1137L95.8304 59.9274L97.0373 63.7612ZM102.946 67.0005C103.101 66.7439 103.195 66.455 103.219 66.1563C103.244 65.8577 103.199 65.5574 103.087 65.2791C103.007 64.9885 102.86 64.7202 102.659 64.4951C102.458 64.2699 102.208 64.0938 101.928 63.9803C101.275 63.7395 100.558 63.7395 99.9056 63.9803L97.4291 64.8723L98.7927 68.9878L101.316 68.1428C101.978 67.9673 102.556 67.5624 102.946 67.0005Z" fill="#002177"/>
<path d="M107.114 55.4993L108.023 62.7289C108.065 63.6751 108.456 64.5726 109.121 65.2483C109.44 65.5005 109.808 65.6824 110.203 65.7822C110.597 65.882 111.008 65.8974 111.409 65.8272C111.803 65.8086 112.189 65.7036 112.538 65.5197C112.888 65.3358 113.193 65.0776 113.431 64.7632C113.916 63.9493 114.078 62.9834 113.885 62.056L112.992 54.8265L114.559 54.6387L115.453 61.8682C115.696 63.1842 115.415 64.5431 114.669 65.6551C114.279 66.1135 113.801 66.4884 113.262 66.7573C112.723 67.0262 112.136 67.1836 111.534 67.2199C110.941 67.3231 110.332 67.3027 109.747 67.1599C109.162 67.0172 108.612 66.7553 108.133 66.3906C107.63 65.9393 107.222 65.393 106.931 64.7834C106.641 64.1737 106.474 63.5127 106.44 62.8384L105.547 55.6089L107.114 55.4993Z" fill="#002177"/>
<path d="M125.313 65.6545C124.978 66.145 124.51 66.5303 123.965 66.7656C123.295 67.0407 122.569 67.1481 121.849 67.0785C121.111 67.035 120.394 66.8264 119.748 66.4683C119.171 66.168 118.684 65.7197 118.338 65.1694C117.996 64.6304 117.812 64.0074 117.805 63.3699L119.466 63.4951C119.486 63.8554 119.582 64.2074 119.748 64.5279C119.932 64.8815 120.208 65.1789 120.548 65.3885C120.943 65.651 121.405 65.7974 121.88 65.811C122.437 65.8771 122.999 65.7257 123.447 65.3885C123.644 65.2147 123.803 65.0033 123.917 64.7667C124.03 64.5302 124.094 64.2733 124.106 64.0115C124.155 63.5822 124.049 63.1494 123.808 62.7909C123.569 62.4615 123.265 62.1846 122.914 61.9772C122.538 61.7738 122.037 61.5547 121.347 61.2886C120.729 61.0457 120.127 60.7634 119.545 60.4436C119.087 60.1782 118.704 59.8013 118.432 59.3483C118.122 58.8021 117.996 58.1716 118.071 57.5487C118.119 56.9843 118.319 56.4435 118.651 55.9839C119.007 55.516 119.492 55.1624 120.046 54.9667C120.691 54.7261 121.384 54.6403 122.068 54.7163C123.094 54.7274 124.08 55.1113 124.842 55.7961C125.486 56.387 125.869 57.2084 125.908 58.0807L124.215 57.9556C124.16 57.4565 123.933 56.992 123.573 56.6411C123.158 56.2221 122.595 55.9808 122.005 55.9682C121.454 55.8935 120.895 56.0275 120.438 56.3438C120.232 56.5033 120.064 56.7071 119.947 56.94C119.831 57.173 119.768 57.4291 119.764 57.6895C119.715 58.0968 119.816 58.5079 120.046 58.8475C120.277 59.1658 120.577 59.4278 120.924 59.6143C121.397 59.8605 121.884 60.0799 122.382 60.2715C123.009 60.5231 123.621 60.8105 124.215 61.1322C124.582 61.3684 124.898 61.6748 125.146 62.0336C125.393 62.3923 125.567 62.7965 125.657 63.2227C125.748 63.6489 125.753 64.0887 125.672 64.5168C125.591 64.9449 125.426 65.3529 125.187 65.7171L125.313 65.6545Z" fill="#002177"/>
<path d="M138.654 58.0027L132.87 64.262L131.695 68.7062L130.127 68.2993L131.303 63.8552L129.406 55.5459L131.177 56.0153L132.557 62.4468L136.93 57.5332L138.654 58.0027Z" fill="#002177"/>
<path d="M117.807 161.564C109.793 161.573 101.932 159.381 95.0829 155.228C88.2341 151.074 82.6621 145.12 78.9771 138.015C75.2921 130.911 73.6361 122.932 74.1906 114.951C74.7451 106.97 77.4886 99.2949 82.1207 92.7667C86.7529 86.2385 93.095 81.1086 100.453 77.9389C107.81 74.7692 115.9 73.6818 123.835 74.7959C131.77 75.9099 139.245 79.1825 145.442 84.2551C151.639 89.3277 156.318 96.0048 158.967 103.555C161.267 110.123 161.961 117.146 160.988 124.036C160.016 130.926 157.407 137.484 153.378 143.162C149.349 148.839 144.018 153.473 137.83 156.674C131.642 159.875 124.776 161.552 117.807 161.564ZM117.807 79.0656C109.54 79.065 101.487 81.6894 94.8125 86.5592C88.138 91.429 83.1879 98.2919 80.6778 106.156C78.1677 114.019 78.2278 122.476 80.8493 130.303C83.4708 138.131 88.5179 144.923 95.2608 149.698C102.004 154.473 110.093 156.983 118.359 156.865C126.625 156.748 134.64 154.008 141.243 149.044C147.847 144.079 152.699 137.146 155.096 129.247C157.493 121.349 157.311 112.894 154.578 105.104C151.9 97.5 146.925 90.912 140.339 86.2484C133.753 81.5849 125.881 79.0753 117.807 79.0656Z" fill="#002177"/>
<path d="M101.082 169.309C101.69 170.285 101.944 171.439 101.803 172.579L100.236 171.985C100.24 171.23 100.01 170.492 99.5772 169.872C99.1024 169.205 98.4355 168.697 97.665 168.417C96.9676 168.125 96.2036 168.027 95.455 168.135C94.7232 168.253 94.039 168.573 93.48 169.059C92.847 169.621 92.3625 170.33 92.0694 171.124C91.7297 171.913 91.5897 172.773 91.6619 173.628C91.7292 174.378 92.0184 175.092 92.4926 175.678C92.9851 176.293 93.635 176.763 94.3735 177.039C95.0084 177.299 95.6967 177.401 96.3797 177.337C97.0593 177.267 97.7083 177.018 98.2606 176.617C98.864 176.175 99.353 175.595 99.687 174.927L95.3923 173.221L95.8155 172.157L101.301 174.348L100.784 175.662C100.366 176.468 99.765 177.165 99.0287 177.697C98.2994 178.212 97.4542 178.539 96.5678 178.651C95.6081 178.753 94.638 178.613 93.7465 178.244C92.7551 177.873 91.8831 177.24 91.223 176.413C90.6144 175.629 90.2347 174.692 90.1258 173.706C90.0259 172.639 90.1929 171.564 90.6117 170.577C90.9981 169.564 91.6279 168.661 92.4456 167.948C93.2038 167.303 94.1261 166.88 95.1101 166.727C96.1713 166.569 97.2554 166.705 98.245 167.118C99.3998 167.529 100.394 168.296 101.082 169.309Z" fill="#002177"/>
<path d="M105.957 169.701L104.751 176.648C104.514 177.538 104.626 178.483 105.064 179.293C105.282 179.619 105.569 179.893 105.905 180.096C106.241 180.298 106.617 180.425 107.008 180.467C107.387 180.554 107.781 180.558 108.162 180.48C108.544 180.402 108.904 180.242 109.218 180.013C109.883 179.38 110.3 178.531 110.393 177.619L111.6 170.671L113.168 170.937L111.945 177.885C111.886 178.534 111.698 179.164 111.391 179.739C111.084 180.315 110.665 180.823 110.158 181.233C109.671 181.566 109.12 181.794 108.54 181.905C107.96 182.015 107.364 182.005 106.788 181.875C106.208 181.805 105.648 181.614 105.146 181.315C104.644 181.016 104.21 180.615 103.873 180.138C103.53 179.582 103.303 178.963 103.206 178.318C103.109 177.672 103.144 177.014 103.309 176.382L104.515 169.435L105.957 169.701Z" fill="#002177"/>
<path d="M121.708 179.935L116.535 180.044L115.61 182.783H114.043L118.087 171.172H119.795L124.388 182.626H122.82L121.708 179.935ZM121.253 178.761L118.965 172.862L116.943 178.855L121.253 178.761Z" fill="#002177"/>
<path d="M133.324 180.874L129.342 176.789L127.775 177.134L128.747 181.828L127.179 182.141L124.812 170.624L128.606 169.841C129.654 169.547 130.776 169.665 131.74 170.17C132.457 170.691 132.967 171.446 133.182 172.304C133.397 173.162 133.303 174.069 132.916 174.865C132.433 175.614 131.7 176.168 130.847 176.429L135.048 180.561L133.324 180.874ZM127.493 176.054L129.671 175.6C131.364 175.256 132.054 174.333 131.756 172.862C131.458 171.391 130.455 170.812 128.778 171.172L126.599 171.625L127.493 176.054Z" fill="#002177"/>
<path d="M143.321 174.567L138.509 176.492L138.603 179.387L137.036 179.997L136.801 167.65L138.368 167.024L146.691 176.132L145.124 176.726L143.321 174.567ZM142.475 173.628L138.274 168.934L138.478 175.193L142.475 173.628Z" fill="#002177"/>
<path d="M157.068 169.716L155.798 170.545L145.594 166.085L150.673 173.91L149.387 174.739L142.961 164.912L144.246 164.082L154.45 168.542L149.372 160.718L150.641 159.889L157.068 169.716Z" fill="#002177"/>
<path d="M157.116 153.802L157.963 154.709L155.533 156.978L162.759 164.646L161.646 165.695L154.42 158.027L152.007 160.296L151.16 159.404L157.116 153.802Z" fill="#002177"/>
<path d="M159.529 152.722L162.664 155.194L165.438 151.689L166.394 152.393L163.62 155.914L166.849 158.449L169.984 154.537L170.956 155.304L166.927 160.405L157.68 153.129L161.692 148.043L162.664 148.81L159.529 152.722Z" fill="#002177"/>
<path d="M164.154 146.259L167.649 148.247L169.875 144.381L170.894 144.96L168.653 148.841L172.226 150.876L174.703 146.572L175.769 147.183L172.54 152.8L162.32 146.963L165.565 141.33L166.631 141.94L164.154 146.259Z" fill="#002177"/>
<path d="M18.2109 133.521L204.732 68.2988L193.761 91.0515L217.397 102.412L30.2486 167.854L41.8788 143.74L18.2109 133.521Z" fill="#002177"/>
<path d="M80.9876 124.038L85.4547 136.745L83.7932 137.324L81.7556 131.471L75.2822 133.74L77.3512 139.624L75.7054 140.203L71.2383 127.465L72.8057 126.886L74.7493 132.394L81.2227 130.141L79.2791 124.633L80.9876 124.038Z" fill="white"/>
<path d="M94.5309 130.298L88.9352 132.254V135.572L87.1641 136.198L87.4932 122.114L89.3584 121.457L98.4494 132.301L96.6782 132.927L94.5309 130.298ZM93.6218 129.172L89.0293 123.57V130.815L93.6218 129.172Z" fill="white"/>
<path d="M99.9195 125.963L101.722 131.096L100.155 131.659L95.6875 118.937L99.7314 117.513C100.884 117.015 102.183 116.971 103.368 117.388C103.861 117.625 104.299 117.962 104.655 118.377C105.011 118.792 105.277 119.275 105.437 119.798C105.633 120.3 105.722 120.839 105.698 121.378C105.674 121.917 105.537 122.445 105.296 122.927C104.626 123.971 103.593 124.729 102.396 125.056L99.9195 125.963ZM103.697 122.411C103.943 121.76 103.953 121.042 103.723 120.385C103.494 119.727 103.041 119.17 102.443 118.812C101.661 118.553 100.811 118.598 100.061 118.937L97.8035 119.735L99.4963 124.586L101.769 123.804C102.565 123.6 103.254 123.102 103.697 122.411Z" fill="white"/>
<path d="M110.252 122.348L112.054 127.481L110.487 128.06L106.02 115.322L109.969 113.898C111.122 113.396 112.425 113.357 113.606 113.789C114.101 114.021 114.54 114.356 114.894 114.771C115.248 115.187 115.509 115.674 115.659 116.199C115.865 116.699 115.959 117.239 115.934 117.779C115.91 118.32 115.768 118.848 115.518 119.328C114.859 120.375 113.829 121.135 112.634 121.457L110.252 122.348ZM113.966 118.796C114.214 118.143 114.223 117.424 113.991 116.765C113.758 116.106 113.3 115.551 112.697 115.197C111.92 114.938 111.074 114.983 110.33 115.322L108.057 116.12L109.766 120.971L112.023 120.189C112.823 119.985 113.516 119.487 113.966 118.796Z" fill="white"/>
<path d="M117.915 111.129L122.383 123.867L120.815 124.446L116.238 111.708L117.915 111.129Z" fill="white"/>
<path d="M134.92 119.532L133.353 120.111L123.211 112.287L126.738 122.348L125.092 122.927L120.547 110.143L122.114 109.579L132.271 117.404L128.776 107.326L130.343 106.747L134.92 119.532Z" fill="white"/>
<path d="M135.218 106.591L136.785 110.941L141.628 109.235L142.083 110.503L137.224 112.193L138.791 116.637L144.136 114.837L144.606 116.167L137.569 118.624L133.102 105.902L140.139 103.445L140.609 104.775L135.218 106.591Z" fill="white"/>
<path d="M153.855 111.066C153.734 111.712 153.429 112.31 152.977 112.788C152.426 113.369 151.736 113.8 150.971 114.04C150.201 114.327 149.376 114.44 148.557 114.368C147.832 114.308 147.135 114.06 146.535 113.648C145.956 113.262 145.5 112.719 145.219 112.084L146.974 111.473C147.156 111.855 147.428 112.186 147.766 112.44C148.105 112.693 148.5 112.861 148.918 112.929C149.445 113.018 149.986 112.964 150.485 112.772C150.793 112.687 151.081 112.54 151.332 112.341C151.582 112.142 151.79 111.895 151.943 111.614C152.056 111.347 152.114 111.059 152.114 110.769C152.114 110.479 152.056 110.192 151.943 109.924C151.802 109.461 151.495 109.065 151.081 108.813C150.696 108.575 150.261 108.431 149.811 108.391C149.2 108.348 148.588 108.348 147.977 108.391C147.241 108.436 146.503 108.436 145.767 108.391C145.203 108.316 144.665 108.107 144.2 107.78C143.558 107.344 143.092 106.696 142.883 105.949C142.69 105.328 142.69 104.662 142.883 104.04C142.995 103.391 143.301 102.791 143.761 102.319C144.323 101.797 144.991 101.402 145.72 101.161C146.771 100.721 147.946 100.676 149.027 101.036C149.944 101.36 150.697 102.028 151.128 102.898L149.356 103.524C149.068 103.041 148.627 102.667 148.103 102.46C147.488 102.217 146.805 102.217 146.19 102.46C145.6 102.629 145.096 103.015 144.78 103.54C144.64 103.791 144.559 104.071 144.542 104.358C144.526 104.645 144.575 104.933 144.686 105.198C144.816 105.642 145.106 106.021 145.501 106.262C145.874 106.483 146.291 106.617 146.723 106.654C147.162 106.654 147.758 106.654 148.51 106.654C149.262 106.601 150.016 106.601 150.767 106.654C151.334 106.737 151.872 106.957 152.335 107.295C152.916 107.741 153.339 108.36 153.541 109.063C153.843 109.685 153.952 110.382 153.855 111.066Z" fill="white"/>
<path d="M164.06 107.467C163.936 108.112 163.632 108.709 163.183 109.189C162.625 109.769 161.929 110.199 161.161 110.44C160.391 110.728 159.566 110.84 158.747 110.769C158.031 110.73 157.337 110.515 156.725 110.143C156.153 109.749 155.698 109.209 155.408 108.578L157.164 107.952C157.334 108.318 157.586 108.639 157.9 108.891C158.253 109.164 158.668 109.347 159.107 109.423C159.636 109.508 160.177 109.448 160.675 109.251C160.983 109.166 161.271 109.019 161.522 108.82C161.772 108.621 161.98 108.374 162.132 108.093C162.249 107.83 162.31 107.544 162.31 107.256C162.31 106.968 162.249 106.682 162.132 106.419C161.987 105.958 161.688 105.561 161.286 105.292C160.899 105.059 160.466 104.915 160.016 104.87C159.4 104.835 158.783 104.835 158.167 104.87C157.431 104.914 156.693 104.914 155.957 104.87C155.392 104.79 154.854 104.575 154.389 104.244C153.78 103.762 153.364 103.08 153.214 102.319C152.975 101.709 152.924 101.041 153.07 100.402C153.215 99.7632 153.549 99.1825 154.029 98.7355C154.595 98.2295 155.263 97.8507 155.988 97.6244C157.04 97.1925 158.21 97.1426 159.295 97.4836C160.215 97.8097 160.97 98.4842 161.396 99.3614L159.625 99.9717C159.337 99.4935 158.903 99.1204 158.386 98.9076C157.766 98.6658 157.078 98.6658 156.458 98.9076C155.878 99.0858 155.378 99.4626 155.048 99.9717C154.908 100.226 154.826 100.508 154.81 100.798C154.794 101.088 154.843 101.378 154.954 101.646C155.093 102.085 155.381 102.461 155.769 102.71C156.145 102.921 156.562 103.049 156.991 103.086C157.592 103.12 158.193 103.12 158.794 103.086C159.54 103.042 160.289 103.042 161.035 103.086C161.636 103.162 162.207 103.388 162.697 103.743C163.276 104.184 163.699 104.798 163.904 105.496C164.138 106.126 164.192 106.808 164.06 107.467Z" fill="white"/>
</svg>
