<svg width="22" height="22" viewBox="0 0 22 22" fill="none" xmlns="http://www.w3.org/2000/svg">
<path d="M12.0886 0C8.84605 0 5.8493 1.58783 4.01172 4.16651C4.4774 4.29806 4.90465 4.5464 5.25669 4.89812L5.55938 5.20081C7.05493 3.13241 9.47338 1.86094 12.0886 1.86094C16.5283 1.86094 20.1403 5.47302 20.1403 9.91283C20.1403 12.5411 18.8727 14.9515 16.8025 16.4439L17.0362 16.6777C17.4126 17.0543 17.6709 17.5193 17.794 18.0215C20.4002 16.1903 22.0013 13.1893 22.0013 9.91283C22.0013 4.44687 17.5545 0 12.0886 0Z" fill="#025B5D"/>
<path d="M13.4804 15.4143C13.2153 15.1492 12.8528 15.0164 12.472 15.0547C11.7997 15.1226 11.169 15.3814 10.6482 15.8032C10.5768 15.8616 10.4844 15.8942 10.3894 15.8942C10.2964 15.8942 10.2054 15.8626 10.1334 15.8052C8.6595 14.6188 7.31276 13.2712 6.1292 11.7987C6.0083 11.6495 6.00869 11.4317 6.13093 11.2818C6.55157 10.7623 6.81005 10.1321 6.87775 9.46012C6.91535 9.08556 6.78425 8.71793 6.51814 8.45156L4.10976 6.04344C3.87374 5.80768 3.56021 5.67773 3.22704 5.67773C3.18687 5.67773 3.1456 5.67972 3.1046 5.6837C2.31595 5.76103 1.57138 6.11364 1.00861 6.67655C-0.0734985 7.75884 -0.312854 9.44607 0.426645 10.7797C2.31023 14.2158 6.84014 19.1685 11.1619 21.511C11.6641 21.785 12.2337 21.9296 12.8096 21.9296C13.7252 21.9296 14.6168 21.5631 15.2559 20.924C15.8187 20.361 16.1715 19.6164 16.2488 18.8274C16.2855 18.4544 16.1543 18.0881 15.8889 17.8225L13.4804 15.4143Z" fill="#025B5D"/>
<path d="M12.4737 3.34473C12.1193 3.34473 11.832 3.63202 11.832 3.98643V9.24839C11.832 9.6028 12.1193 9.89009 12.4737 9.89009H17.3803C17.7346 9.89009 18.022 9.6028 18.022 9.24839C18.022 8.89398 17.7346 8.60669 17.3803 8.60669H13.1154V3.98643C13.1154 3.63202 12.8281 3.34473 12.4737 3.34473Z" fill="#025B5D"/>
</svg>
