<svg width="31" height="33" viewBox="0 0 31 33" fill="none" xmlns="http://www.w3.org/2000/svg">
<g clip-path="url(#clip0_3402_3952)">
<path d="M30.0099 5.77435C28.8867 6.30909 27.7587 6.71276 26.5087 6.84907C27.7587 6.04172 28.7598 4.69964 29.2579 3.22126C28.0078 4.0286 26.7577 4.56334 25.3855 4.83595C24.1354 3.49387 22.5094 2.68652 20.7612 2.68652C17.3821 2.68652 14.6328 5.63805 14.6328 9.26061C14.6328 9.80059 14.6328 10.3353 14.7598 10.739C9.6325 10.4716 5.13512 7.91853 2.13198 3.8923C1.50694 4.83595 1.2579 6.04172 1.2579 7.2475C1.2579 9.53322 2.38102 11.5463 4.00711 12.7521C3.00607 12.6158 2.0099 12.3484 1.2579 11.9448C1.2579 11.9448 1.2579 11.9448 1.2579 12.0811C1.2579 15.3 3.38207 17.9841 6.13128 18.5241C5.6332 18.6552 5.13512 18.7915 4.51008 18.7915C4.13407 18.7915 3.75807 18.7915 3.38207 18.6552C4.13407 21.3393 6.3852 23.2214 9.13441 23.2214C7.01025 24.9671 4.38311 26.0366 1.50694 26.0366C1.00886 26.0366 0.505894 26.0366 0.0078125 25.9055C2.75702 27.7823 6.0092 28.8571 9.38346 28.8571C20.7612 28.8571 26.8847 18.7915 26.8847 10.068C26.8847 9.80059 26.8847 9.53322 26.8847 9.26061C28.1347 8.32221 29.1358 7.11643 30.0099 5.77435Z" fill="white"/>
</g>
<defs>
<clipPath id="clip0_3402_3952">
<rect width="30.0021" height="32.2099" fill="white" transform="translate(0.0078125 0.00195312)"/>
</clipPath>
</defs>
</svg>
