<svg width="22" height="23" viewBox="0 0 22 23" fill="none" xmlns="http://www.w3.org/2000/svg">
<path d="M9.24769 11.8759C12.2704 11.8759 14.7208 9.42553 14.7208 6.40283C14.7208 3.38013 12.2704 0.929688 9.24769 0.929688C6.22496 0.929688 3.77455 3.3801 3.77455 6.4028C3.77455 9.4255 6.22496 11.8759 9.24769 11.8759ZM11.8968 8.56171C11.6477 9.38491 10.5812 10.0038 9.30298 10.0038C8.02472 10.0038 6.95818 9.38491 6.70925 8.56171H11.8968ZM21.8646 17.8068L16.8571 21.98C16.7114 22.1014 16.4826 22.091 16.3486 21.9569L13.8554 19.4635C13.7086 19.3167 13.7086 19.0765 13.8554 18.9296L14.3891 18.3959C14.5359 18.2491 14.7762 18.2491 14.9229 18.3959L16.6852 20.1579L20.8982 16.6471C21.0577 16.5142 21.2969 16.5359 21.4298 16.6954L21.913 17.2751C22.0458 17.4346 22.0241 17.6738 21.8646 17.8068ZM13.2682 20.0506L14.2177 21.0003C12.9218 21.1828 11.2882 21.3124 9.24773 21.3124C3.9705 21.3124 1.38798 20.4501 0.441186 20.0288C0.196886 19.9201 0 19.6093 0 19.342V17.5378C0 14.8344 2.05837 12.5916 4.68489 12.2911C4.76469 12.282 4.88307 12.3162 4.94809 12.3633C6.1591 13.24 7.64173 13.7632 9.24769 13.7632C10.8537 13.7632 12.3363 13.24 13.5473 12.3633C13.6124 12.3162 13.7307 12.282 13.8105 12.2911C16.437 12.5915 18.4954 14.8343 18.4954 17.5378V17.5683L16.7361 19.0344L15.5101 17.8088C15.2819 17.5806 14.9785 17.4548 14.656 17.4548C14.3335 17.4548 14.0301 17.5806 13.8019 17.8088L13.2682 18.3425C12.797 18.8136 12.797 19.5796 13.2682 20.0506Z" fill="#025B5D"/>
</svg>
